<svg xmlns="http://www.w3.org/2000/svg" viewBox="0 0 2137 1240" width="2137" height="1240" xmlns:xlink="http://www.w3.org/1999/xlink" style="shape-rendering:auto;display:block;background-position-x:0%;background-position-y:0%;background-size:auto;background-origin:padding-box;background-clip:border-box;background:scroll rgba(0, 0, 0, 0) none  repeat;width:2137px;height:1240px;;animation:none"><g><path stroke-width="1" stroke-opacity="0" stroke="rgb(98, 82, 197)" fill="none" d="M 0 471 C 356 471 713 1091 1069 1091 C 1425 1091 1782 471 2138 471 C 2494 471 2851 1091 3207 1091 C 3563 1091 3920 471 4276 471" transform="matrix(1,0,0,1,0,0)" style="fill:none;stroke:rgb(98, 82, 197);transform:matrix(1, 0, 0, 1, 0, 0);;animation:none"></path>
<path stroke-width="1" stroke-opacity="0" stroke="rgb(98, 82, 197)" fill="none" d="M 0 471.011 C 356 471.011 713 1090.99 1069 1090.99 C 1425 1090.99 1782 471.011 2138 471.011 C 2494 471.011 2851 1090.99 3207 1090.99 C 3563 1090.99 3920 471.011 4276 471.011" transform="matrix(1,0,0,1,-3.9534499645233154,0)" style="fill:none;stroke:rgb(98, 82, 197);transform:matrix(1, 0, 0, 1, -3.95345, 0);;animation:none"></path>
<path stroke-width="1" stroke-opacity="0" stroke="rgb(98, 82, 197)" fill="none" d="M 0 471.046 C 356 471.046 713 1090.95 1069 1090.95 C 1425 1090.95 1782 471.046 2138 471.046 C 2494 471.046 2851 1090.95 3207 1090.95 C 3563 1090.95 3920 471.046 4276 471.046" transform="matrix(1,0,0,1,-7.906899929046631,0)" style="fill:none;stroke:rgb(98, 82, 197);transform:matrix(1, 0, 0, 1, -7.9069, 0);;animation:none"></path>
<path stroke-width="1" stroke-opacity="0" stroke="rgb(98, 82, 197)" fill="none" d="M 0 471.103 C 356 471.103 713 1090.9 1069 1090.9 C 1425 1090.9 1782 471.103 2138 471.103 C 2494 471.103 2851 1090.9 3207 1090.9 C 3563 1090.9 3920 471.103 4276 471.103" transform="matrix(1,0,0,1,-11.860306739807129,0)" style="fill:none;stroke:rgb(98, 82, 197);transform:matrix(1, 0, 0, 1, -11.8603, 0);;animation:none"></path>
<path stroke-width="1" stroke-opacity="0" stroke="rgb(98, 82, 197)" fill="none" d="M 0 471.183 C 356 471.183 713 1090.82 1069 1090.82 C 1425 1090.82 1782 471.183 2138 471.183 C 2494 471.183 2851 1090.82 3207 1090.82 C 3563 1090.82 3920 471.183 4276 471.183" transform="matrix(1,0,0,1,-15.813799858093262,0)" style="fill:none;stroke:rgb(98, 82, 197);transform:matrix(1, 0, 0, 1, -15.8138, 0);;animation:none"></path>
<path stroke-width="1" stroke-opacity="0" stroke="rgb(98, 82, 197)" fill="none" d="M 0 471.288 C 356 471.288 713 1090.71 1069 1090.71 C 1425 1090.71 1782 471.288 2138 471.288 C 2494 471.288 2851 1090.71 3207 1090.71 C 3563 1090.71 3920 471.288 4276 471.288" transform="matrix(1,0,0,1,-19.767250061035156,0)" style="fill:none;stroke:rgb(98, 82, 197);transform:matrix(1, 0, 0, 1, -19.7673, 0);;animation:none"></path>
<path stroke-width="1" stroke-opacity="0" stroke="rgb(98, 82, 197)" fill="none" d="M 0 471.416 C 356 471.416 713 1090.58 1069 1090.58 C 1425 1090.58 1782 471.416 2138 471.416 C 2494 471.416 2851 1090.58 3207 1090.58 C 3563 1090.58 3920 471.416 4276 471.416" transform="matrix(1,0,0,1,-23.720657348632812,0)" style="fill:none;stroke:rgb(98, 82, 197);transform:matrix(1, 0, 0, 1, -23.7207, 0);;animation:none"></path>
<path stroke-width="1" stroke-opacity="0" stroke="rgb(98, 82, 197)" fill="none" d="M 0 471.568 C 356 471.568 713 1090.43 1069 1090.43 C 1425 1090.43 1782 471.568 2138 471.568 C 2494 471.568 2851 1090.43 3207 1090.43 C 3563 1090.43 3920 471.568 4276 471.568" transform="matrix(1,0,0,1,-27.674150466918945,0)" style="fill:none;stroke:rgb(98, 82, 197);transform:matrix(1, 0, 0, 1, -27.6742, 0);;animation:none"></path>
<path stroke-width="1" stroke-opacity="0" stroke="rgb(98, 82, 197)" fill="none" d="M 0 471.744 C 356 471.744 713 1090.26 1069 1090.26 C 1425 1090.26 1782 471.744 2138 471.744 C 2494 471.744 2851 1090.26 3207 1090.26 C 3563 1090.26 3920 471.744 4276 471.744" transform="matrix(1,0,0,1,-31.627599716186523,0)" style="fill:none;stroke:rgb(98, 82, 197);transform:matrix(1, 0, 0, 1, -31.6276, 0);;animation:none"></path>
<path stroke-width="1" stroke-opacity="0" stroke="rgb(98, 82, 197)" fill="none" d="M 0 471.945 C 356 471.945 713 1090.06 1069 1090.06 C 1425 1090.06 1782 471.945 2138 471.945 C 2494 471.945 2851 1090.06 3207 1090.06 C 3563 1090.06 3920 471.945 4276 471.945" transform="matrix(1,0,0,1,-35.581050872802734,0)" style="fill:none;stroke:rgb(98, 82, 197);transform:matrix(1, 0, 0, 1, -35.5811, 0);;animation:none"></path>
<path stroke-width="1" stroke-opacity="0" stroke="rgb(98, 83, 197)" fill="none" d="M 0 472.17 C 356 472.17 713 1089.83 1069 1089.83 C 1425 1089.83 1782 472.17 2138 472.17 C 2494 472.17 2851 1089.83 3207 1089.83 C 3563 1089.83 3920 472.17 4276 472.17" transform="matrix(1,0,0,1,-39.53450012207031,0)" style="fill:none;stroke:rgb(98, 83, 197);transform:matrix(1, 0, 0, 1, -39.5345, 0);;animation:none"></path>
<path stroke-width="1" stroke-opacity="0" stroke="rgb(97, 83, 197)" fill="none" d="M 0 472.421 C 356 472.421 713 1089.58 1069 1089.58 C 1425 1089.58 1782 472.421 2138 472.421 C 2494 472.421 2851 1089.58 3207 1089.58 C 3563 1089.58 3920 472.421 4276 472.421" transform="matrix(1,0,0,1,-43.48794937133789,0)" style="fill:none;stroke:rgb(97, 83, 197);transform:matrix(1, 0, 0, 1, -43.4879, 0);;animation:none"></path>
<path stroke-width="1" stroke-opacity="0" stroke="rgb(97, 83, 197)" fill="none" d="M 0 472.696 C 356 472.696 713 1089.3 1069 1089.3 C 1425 1089.3 1782 472.696 2138 472.696 C 2494 472.696 2851 1089.3 3207 1089.3 C 3563 1089.3 3920 472.696 4276 472.696" transform="matrix(1,0,0,1,-47.44136047363281,0)" style="fill:none;stroke:rgb(97, 83, 197);transform:matrix(1, 0, 0, 1, -47.4414, 0);;animation:none"></path>
<path stroke-width="1" stroke-opacity="0" stroke="rgb(97, 83, 197)" fill="none" d="M 0 472.998 C 356 472.998 713 1089 1069 1089 C 1425 1089 1782 472.998 2138 472.998 C 2494 472.998 2851 1089 3207 1089 C 3563 1089 3920 472.998 4276 472.998" transform="matrix(1,0,0,1,-51.39484786987305,0)" style="fill:none;stroke:rgb(97, 83, 197);transform:matrix(1, 0, 0, 1, -51.3948, 0);;animation:none"></path>
<path stroke-width="1" stroke-opacity="0" stroke="rgb(97, 83, 197)" fill="none" d="M 0 473.325 C 356 473.325 713 1088.68 1069 1088.68 C 1425 1088.68 1782 473.325 2138 473.325 C 2494 473.325 2851 1088.68 3207 1088.68 C 3563 1088.68 3920 473.325 4276 473.325" transform="matrix(1,0,0,1,-55.34830093383789,0)" style="fill:none;stroke:rgb(97, 83, 197);transform:matrix(1, 0, 0, 1, -55.3483, 0);;animation:none"></path>
<path stroke-width="1" stroke-opacity="0" stroke="rgb(97, 83, 197)" fill="none" d="M 0 473.678 C 356 473.678 713 1088.32 1069 1088.32 C 1425 1088.32 1782 473.678 2138 473.678 C 2494 473.678 2851 1088.32 3207 1088.32 C 3563 1088.32 3920 473.678 4276 473.678" transform="matrix(1,0,0,1,-59.30175018310547,0)" style="fill:none;stroke:rgb(97, 83, 197);transform:matrix(1, 0, 0, 1, -59.3018, 0);;animation:none"></path>
<path stroke-width="1" stroke-opacity="0" stroke="rgb(97, 84, 198)" fill="none" d="M 0 474.057 C 356 474.057 713 1087.94 1069 1087.94 C 1425 1087.94 1782 474.057 2138 474.057 C 2494 474.057 2851 1087.94 3207 1087.94 C 3563 1087.94 3920 474.057 4276 474.057" transform="matrix(1,0,0,1,-63.25519943237305,0)" style="fill:none;stroke:rgb(97, 84, 198);transform:matrix(1, 0, 0, 1, -63.2552, 0);;animation:none"></path>
<path stroke-width="1" stroke-opacity="0" stroke="rgb(97, 84, 198)" fill="none" d="M 0 474.463 C 356 474.463 713 1087.54 1069 1087.54 C 1425 1087.54 1782 474.463 2138 474.463 C 2494 474.463 2851 1087.54 3207 1087.54 C 3563 1087.54 3920 474.463 4276 474.463" transform="matrix(1,0,0,1,-67.20864868164062,0)" style="fill:none;stroke:rgb(97, 84, 198);transform:matrix(1, 0, 0, 1, -67.2086, 0);;animation:none"></path>
<path stroke-width="1" stroke-opacity="0" stroke="rgb(96, 84, 198)" fill="none" d="M 0 474.896 C 356 474.896 713 1087.1 1069 1087.1 C 1425 1087.1 1782 474.896 2138 474.896 C 2494 474.896 2851 1087.1 3207 1087.1 C 3563 1087.1 3920 474.896 4276 474.896" transform="matrix(1,0,0,1,-71.16210174560547,0)" style="fill:none;stroke:rgb(96, 84, 198);transform:matrix(1, 0, 0, 1, -71.1621, 0);;animation:none"></path>
<path stroke-width="1" stroke-opacity="0" stroke="rgb(96, 84, 198)" fill="none" d="M 0 475.356 C 356 475.356 713 1086.64 1069 1086.64 C 1425 1086.64 1782 475.356 2138 475.356 C 2494 475.356 2851 1086.64 3207 1086.64 C 3563 1086.64 3920 475.356 4276 475.356" transform="matrix(1,0,0,1,-75.11554718017578,0)" style="fill:none;stroke:rgb(96, 84, 198);transform:matrix(1, 0, 0, 1, -75.1155, 0);;animation:none"></path>
<path stroke-width="1" stroke-opacity="0" stroke="rgb(96, 85, 198)" fill="none" d="M 0 475.844 C 356 475.844 713 1086.16 1069 1086.16 C 1425 1086.16 1782 475.844 2138 475.844 C 2494 475.844 2851 1086.16 3207 1086.16 C 3563 1086.16 3920 475.844 4276 475.844" transform="matrix(1,0,0,1,-79.06900024414062,0)" style="fill:none;stroke:rgb(96, 85, 198);transform:matrix(1, 0, 0, 1, -79.069, 0);;animation:none"></path>
<path stroke-width="1" stroke-opacity="0" stroke="rgb(96, 85, 198)" fill="none" d="M 0 476.359 C 356 476.359 713 1085.64 1069 1085.64 C 1425 1085.64 1782 476.359 2138 476.359 C 2494 476.359 2851 1085.64 3207 1085.64 C 3563 1085.64 3920 476.359 4276 476.359" transform="matrix(1,0,0,1,-83.02244567871094,0)" style="fill:none;stroke:rgb(96, 85, 198);transform:matrix(1, 0, 0, 1, -83.0224, 0);;animation:none"></path>
<path stroke-width="1" stroke-opacity="0" stroke="rgb(96, 85, 198)" fill="none" d="M 0 476.902 C 356 476.902 713 1085.1 1069 1085.1 C 1425 1085.1 1782 476.902 2138 476.902 C 2494 476.902 2851 1085.1 3207 1085.1 C 3563 1085.1 3920 476.902 4276 476.902" transform="matrix(1,0,0,1,-86.97589874267578,0)" style="fill:none;stroke:rgb(96, 85, 198);transform:matrix(1, 0, 0, 1, -86.9759, 0);;animation:none"></path>
<path stroke-width="1" stroke-opacity="0" stroke="rgb(95, 85, 198)" fill="none" d="M 0 477.473 C 356 477.473 713 1084.53 1069 1084.53 C 1425 1084.53 1782 477.473 2138 477.473 C 2494 477.473 2851 1084.53 3207 1084.53 C 3563 1084.53 3920 477.473 4276 477.473" transform="matrix(1,0,0,1,-90.92935180664062,0)" style="fill:none;stroke:rgb(95, 85, 198);transform:matrix(1, 0, 0, 1, -90.9294, 0);;animation:none"></path>
<path stroke-width="1" stroke-opacity="0" stroke="rgb(95, 86, 198)" fill="none" d="M 0 478.073 C 356 478.073 713 1083.93 1069 1083.93 C 1425 1083.93 1782 478.073 2138 478.073 C 2494 478.073 2851 1083.93 3207 1083.93 C 3563 1083.93 3920 478.073 4276 478.073" transform="matrix(1,0,0,1,-94.88275909423828,0)" style="fill:none;stroke:rgb(95, 86, 198);transform:matrix(1, 0, 0, 1, -94.8828, 0);;animation:none"></path>
<path stroke-width="1" stroke-opacity="0" stroke="rgb(95, 86, 198)" fill="none" d="M 0 478.702 C 356 478.702 713 1083.3 1069 1083.3 C 1425 1083.3 1782 478.702 2138 478.702 C 2494 478.702 2851 1083.3 3207 1083.3 C 3563 1083.3 3920 478.702 4276 478.702" transform="matrix(1,0,0,1,-98.83625030517578,0)" style="fill:none;stroke:rgb(95, 86, 198);transform:matrix(1, 0, 0, 1, -98.8363, 0);;animation:none"></path>
<path stroke-width="1" stroke-opacity="0" stroke="rgb(95, 87, 198)" fill="none" d="M 0 479.359 C 356 479.359 713 1082.64 1069 1082.64 C 1425 1082.64 1782 479.359 2138 479.359 C 2494 479.359 2851 1082.64 3207 1082.64 C 3563 1082.64 3920 479.359 4276 479.359" transform="matrix(1,0,0,1,-102.7896957397461,0)" style="fill:none;stroke:rgb(95, 87, 198);transform:matrix(1, 0, 0, 1, -102.79, 0);;animation:none"></path>
<path stroke-width="1" stroke-opacity="0" stroke="rgb(94, 87, 199)" fill="none" d="M 0 480.047 C 356 480.047 713 1081.95 1069 1081.95 C 1425 1081.95 1782 480.047 2138 480.047 C 2494 480.047 2851 1081.95 3207 1081.95 C 3563 1081.95 3920 480.047 4276 480.047" transform="matrix(1,0,0,1,-106.74314880371094,0)" style="fill:none;stroke:rgb(94, 87, 199);transform:matrix(1, 0, 0, 1, -106.743, 0);;animation:none"></path>
<path stroke-width="1" stroke-opacity="0" stroke="rgb(94, 87, 199)" fill="none" d="M 0 480.764 C 356 480.764 713 1081.24 1069 1081.24 C 1425 1081.24 1782 480.764 2138 480.764 C 2494 480.764 2851 1081.24 3207 1081.24 C 3563 1081.24 3920 480.764 4276 480.764" transform="matrix(1,0,0,1,-110.69660186767578,0)" style="fill:none;stroke:rgb(94, 87, 199);transform:matrix(1, 0, 0, 1, -110.697, 0);;animation:none"></path>
<path stroke-width="1" stroke-opacity="0" stroke="rgb(94, 88, 199)" fill="none" d="M 0 481.511 C 356 481.511 713 1080.49 1069 1080.49 C 1425 1080.49 1782 481.511 2138 481.511 C 2494 481.511 2851 1080.49 3207 1080.49 C 3563 1080.49 3920 481.511 4276 481.511" transform="matrix(1,0,0,1,-114.6500473022461,0)" style="fill:none;stroke:rgb(94, 88, 199);transform:matrix(1, 0, 0, 1, -114.65, 0);;animation:none"></path>
<path stroke-width="1" stroke-opacity="0" stroke="rgb(93, 88, 199)" fill="none" d="M 0 482.288 C 356 482.288 713 1079.71 1069 1079.71 C 1425 1079.71 1782 482.288 2138 482.288 C 2494 482.288 2851 1079.71 3207 1079.71 C 3563 1079.71 3920 482.288 4276 482.288" transform="matrix(1,0,0,1,-118.60350036621094,0)" style="fill:none;stroke:rgb(93, 88, 199);transform:matrix(1, 0, 0, 1, -118.604, 0);;animation:none"></path>
<path stroke-width="1" stroke-opacity="0" stroke="rgb(93, 89, 199)" fill="none" d="M 0 483.096 C 356 483.096 713 1078.9 1069 1078.9 C 1425 1078.9 1782 483.096 2138 483.096 C 2494 483.096 2851 1078.9 3207 1078.9 C 3563 1078.9 3920 483.096 4276 483.096" transform="matrix(1,0,0,1,-122.55694580078125,0)" style="fill:none;stroke:rgb(93, 89, 199);transform:matrix(1, 0, 0, 1, -122.557, 0);;animation:none"></path>
<path stroke-width="1" stroke-opacity="0" stroke="rgb(93, 89, 199)" fill="none" d="M 0 483.935 C 356 483.935 713 1078.06 1069 1078.06 C 1425 1078.06 1782 483.935 2138 483.935 C 2494 483.935 2851 1078.06 3207 1078.06 C 3563 1078.06 3920 483.935 4276 483.935" transform="matrix(1,0,0,1,-126.5103988647461,0)" style="fill:none;stroke:rgb(93, 89, 199);transform:matrix(1, 0, 0, 1, -126.51, 0);;animation:none"></path>
<path stroke-width="1" stroke-opacity="0" stroke="rgb(92, 90, 200)" fill="none" d="M 0 484.805 C 356 484.805 713 1077.19 1069 1077.19 C 1425 1077.19 1782 484.805 2138 484.805 C 2494 484.805 2851 1077.19 3207 1077.19 C 3563 1077.19 3920 484.805 4276 484.805" transform="matrix(1,0,0,1,-130.46385192871094,0)" style="fill:none;stroke:rgb(92, 90, 200);transform:matrix(1, 0, 0, 1, -130.464, 0);;animation:none"></path>
<path stroke-width="1" stroke-opacity="0" stroke="rgb(92, 90, 200)" fill="none" d="M 0 485.707 C 356 485.707 713 1076.29 1069 1076.29 C 1425 1076.29 1782 485.707 2138 485.707 C 2494 485.707 2851 1076.29 3207 1076.29 C 3563 1076.29 3920 485.707 4276 485.707" transform="matrix(1,0,0,1,-134.41729736328125,0)" style="fill:none;stroke:rgb(92, 90, 200);transform:matrix(1, 0, 0, 1, -134.417, 0);;animation:none"></path>
<path stroke-width="1" stroke-opacity="0" stroke="rgb(92, 91, 200)" fill="none" d="M 0 486.641 C 356 486.641 713 1075.36 1069 1075.36 C 1425 1075.36 1782 486.641 2138 486.641 C 2494 486.641 2851 1075.36 3207 1075.36 C 3563 1075.36 3920 486.641 4276 486.641" transform="matrix(1,0,0,1,-138.37075805664062,0)" style="fill:none;stroke:rgb(92, 91, 200);transform:matrix(1, 0, 0, 1, -138.371, 0);;animation:none"></path>
<path stroke-width="1" stroke-opacity="0" stroke="rgb(91, 91, 200)" fill="none" d="M 0 487.607 C 356 487.607 713 1074.39 1069 1074.39 C 1425 1074.39 1782 487.607 2138 487.607 C 2494 487.607 2851 1074.39 3207 1074.39 C 3563 1074.39 3920 487.607 4276 487.607" transform="matrix(1,0,0,1,-142.32420349121094,0)" style="fill:none;stroke:rgb(91, 91, 200);transform:matrix(1, 0, 0, 1, -142.324, 0);;animation:none"></path>
<path stroke-width="1" stroke-opacity="0" stroke="rgb(91, 92, 200)" fill="none" d="M 0 488.606 C 356 488.606 713 1073.39 1069 1073.39 C 1425 1073.39 1782 488.606 2138 488.606 C 2494 488.606 2851 1073.39 3207 1073.39 C 3563 1073.39 3920 488.606 4276 488.606" transform="matrix(1,0,0,1,-146.27764892578125,0)" style="fill:none;stroke:rgb(91, 92, 200);transform:matrix(1, 0, 0, 1, -146.278, 0);;animation:none"></path>
<path stroke-width="1" stroke-opacity="0" stroke="rgb(90, 93, 200)" fill="none" d="M 0 489.638 C 356 489.638 713 1072.36 1069 1072.36 C 1425 1072.36 1782 489.638 2138 489.638 C 2494 489.638 2851 1072.36 3207 1072.36 C 3563 1072.36 3920 489.638 4276 489.638" transform="matrix(1,0,0,1,-150.23109436035156,0)" style="fill:none;stroke:rgb(90, 93, 200);transform:matrix(1, 0, 0, 1, -150.231, 0);;animation:none"></path>
<path stroke-width="1" stroke-opacity="0" stroke="rgb(90, 93, 201)" fill="none" d="M 0 490.702 C 356 490.702 713 1071.3 1069 1071.3 C 1425 1071.3 1782 490.702 2138 490.702 C 2494 490.702 2851 1071.3 3207 1071.3 C 3563 1071.3 3920 490.702 4276 490.702" transform="matrix(1,0,0,1,-154.18455505371094,0)" style="fill:none;stroke:rgb(90, 93, 201);transform:matrix(1, 0, 0, 1, -154.185, 0);;animation:none"></path>
<path stroke-width="1" stroke-opacity="0" stroke="rgb(89, 94, 201)" fill="none" d="M 0 491.801 C 356 491.801 713 1070.2 1069 1070.2 C 1425 1070.2 1782 491.801 2138 491.801 C 2494 491.801 2851 1070.2 3207 1070.2 C 3563 1070.2 3920 491.801 4276 491.801" transform="matrix(1,0,0,1,-158.13800048828125,0)" style="fill:none;stroke:rgb(89, 94, 201);transform:matrix(1, 0, 0, 1, -158.138, 0);;animation:none"></path>
<path stroke-width="1" stroke-opacity="0" stroke="rgb(89, 95, 201)" fill="none" d="M 0 492.933 C 356 492.933 713 1069.07 1069 1069.07 C 1425 1069.07 1782 492.933 2138 492.933 C 2494 492.933 2851 1069.07 3207 1069.07 C 3563 1069.07 3920 492.933 4276 492.933" transform="matrix(1,0,0,1,-162.09146118164062,0)" style="fill:none;stroke:rgb(89, 95, 201);transform:matrix(1, 0, 0, 1, -162.091, 0);;animation:none"></path>
<path stroke-width="1" stroke-opacity="0" stroke="rgb(88, 95, 201)" fill="none" d="M 0 494.1 C 356 494.1 713 1067.9 1069 1067.9 C 1425 1067.9 1782 494.1 2138 494.1 C 2494 494.1 2851 1067.9 3207 1067.9 C 3563 1067.9 3920 494.1 4276 494.1" transform="matrix(1,0,0,1,-166.04489135742188,0)" style="fill:none;stroke:rgb(88, 95, 201);transform:matrix(1, 0, 0, 1, -166.045, 0);;animation:none"></path>
<path stroke-width="1" stroke-opacity="0" stroke="rgb(88, 96, 202)" fill="none" d="M 0 495.301 C 356 495.301 713 1066.7 1069 1066.7 C 1425 1066.7 1782 495.301 2138 495.301 C 2494 495.301 2851 1066.7 3207 1066.7 C 3563 1066.7 3920 495.301 4276 495.301" transform="matrix(1,0,0,1,-169.99835205078125,0)" style="fill:none;stroke:rgb(88, 96, 202);transform:matrix(1, 0, 0, 1, -169.998, 0);;animation:none"></path>
<path stroke-width="1" stroke-opacity="0" stroke="rgb(87, 97, 202)" fill="none" d="M 0 496.538 C 356 496.538 713 1065.46 1069 1065.46 C 1425 1065.46 1782 496.538 2138 496.538 C 2494 496.538 2851 1065.46 3207 1065.46 C 3563 1065.46 3920 496.538 4276 496.538" transform="matrix(1,0,0,1,-173.95179748535156,0)" style="fill:none;stroke:rgb(87, 97, 202);transform:matrix(1, 0, 0, 1, -173.952, 0);;animation:none"></path>
<path stroke-width="1" stroke-opacity="0" stroke="rgb(87, 98, 202)" fill="none" d="M 0 497.809 C 356 497.809 713 1064.19 1069 1064.19 C 1425 1064.19 1782 497.809 2138 497.809 C 2494 497.809 2851 1064.19 3207 1064.19 C 3563 1064.19 3920 497.809 4276 497.809" transform="matrix(1,0,0,1,-177.9051971435547,0)" style="fill:none;stroke:rgb(87, 98, 202);transform:matrix(1, 0, 0, 1, -177.905, 0);;animation:none"></path>
<path stroke-width="1" stroke-opacity="0" stroke="rgb(86, 98, 202)" fill="none" d="M 0 499.116 C 356 499.116 713 1062.88 1069 1062.88 C 1425 1062.88 1782 499.116 2138 499.116 C 2494 499.116 2851 1062.88 3207 1062.88 C 3563 1062.88 3920 499.116 4276 499.116" transform="matrix(1,0,0,1,-181.85870361328125,0)" style="fill:none;stroke:rgb(86, 98, 202);transform:matrix(1, 0, 0, 1, -181.859, 0);;animation:none"></path>
<path stroke-width="1" stroke-opacity="0" stroke="rgb(85, 99, 203)" fill="none" d="M 0 500.459 C 356 500.459 713 1061.54 1069 1061.54 C 1425 1061.54 1782 500.459 2138 500.459 C 2494 500.459 2851 1061.54 3207 1061.54 C 3563 1061.54 3920 500.459 4276 500.459" transform="matrix(1,0,0,1,-185.81214904785156,0)" style="fill:none;stroke:rgb(85, 99, 203);transform:matrix(1, 0, 0, 1, -185.812, 0);;animation:none"></path>
<path stroke-width="1" stroke-opacity="0" stroke="rgb(85, 100, 203)" fill="none" d="M 0 501.839 C 356 501.839 713 1060.16 1069 1060.16 C 1425 1060.16 1782 501.839 2138 501.839 C 2494 501.839 2851 1060.16 3207 1060.16 C 3563 1060.16 3920 501.839 4276 501.839" transform="matrix(1,0,0,1,-189.76556396484375,0)" style="fill:none;stroke:rgb(85, 100, 203);transform:matrix(1, 0, 0, 1, -189.766, 0);;animation:none"></path>
<path stroke-width="1" stroke-opacity="0" stroke="rgb(84, 101, 203)" fill="none" d="M 0 503.255 C 356 503.255 713 1058.74 1069 1058.74 C 1425 1058.74 1782 503.255 2138 503.255 C 2494 503.255 2851 1058.74 3207 1058.74 C 3563 1058.74 3920 503.255 4276 503.255" transform="matrix(1,0,0,1,-193.71905517578125,0)" style="fill:none;stroke:rgb(84, 101, 203);transform:matrix(1, 0, 0, 1, -193.719, 0);;animation:none"></path>
<path stroke-width="1" stroke-opacity="0" stroke="rgb(84, 102, 203)" fill="none" d="M 0 504.708 C 356 504.708 713 1057.29 1069 1057.29 C 1425 1057.29 1782 504.708 2138 504.708 C 2494 504.708 2851 1057.29 3207 1057.29 C 3563 1057.29 3920 504.708 4276 504.708" transform="matrix(1,0,0,1,-197.67250061035156,0)" style="fill:none;stroke:rgb(84, 102, 203);transform:matrix(1, 0, 0, 1, -197.673, 0);;animation:none"></path>
<path stroke-width="1" stroke-opacity="0" stroke="rgb(83, 103, 204)" fill="none" d="M 0 506.199 C 356 506.199 713 1055.8 1069 1055.8 C 1425 1055.8 1782 506.199 2138 506.199 C 2494 506.199 2851 1055.8 3207 1055.8 C 3563 1055.8 3920 506.199 4276 506.199" transform="matrix(1,0,0,1,-201.62596130371094,0)" style="fill:none;stroke:rgb(83, 103, 204);transform:matrix(1, 0, 0, 1, -201.626, 0);;animation:none"></path>
<path stroke-width="1" stroke-opacity="0" stroke="rgb(82, 104, 204)" fill="none" d="M 0 507.728 C 356 507.728 713 1054.27 1069 1054.27 C 1425 1054.27 1782 507.728 2138 507.728 C 2494 507.728 2851 1054.27 3207 1054.27 C 3563 1054.27 3920 507.728 4276 507.728" transform="matrix(1,0,0,1,-205.5793914794922,0)" style="fill:none;stroke:rgb(82, 104, 204);transform:matrix(1, 0, 0, 1, -205.579, 0);;animation:none"></path>
<path stroke-width="1" stroke-opacity="0" stroke="rgb(81, 105, 204)" fill="none" d="M 0 509.294 C 356 509.294 713 1052.71 1069 1052.71 C 1425 1052.71 1782 509.294 2138 509.294 C 2494 509.294 2851 1052.71 3207 1052.71 C 3563 1052.71 3920 509.294 4276 509.294" transform="matrix(1,0,0,1,-209.53285217285156,0)" style="fill:none;stroke:rgb(81, 105, 204);transform:matrix(1, 0, 0, 1, -209.533, 0);;animation:none"></path>
<path stroke-width="1" stroke-opacity="0" stroke="rgb(81, 106, 205)" fill="none" d="M 0 510.899 C 356 510.899 713 1051.1 1069 1051.1 C 1425 1051.1 1782 510.899 2138 510.899 C 2494 510.899 2851 1051.1 3207 1051.1 C 3563 1051.1 3920 510.899 4276 510.899" transform="matrix(1,0,0,1,-213.48629760742188,0)" style="fill:none;stroke:rgb(81, 106, 205);transform:matrix(1, 0, 0, 1, -213.486, 0);;animation:none"></path>
<path stroke-width="1" stroke-opacity="0" stroke="rgb(80, 107, 205)" fill="none" d="M 0 512.543 C 356 512.543 713 1049.46 1069 1049.46 C 1425 1049.46 1782 512.543 2138 512.543 C 2494 512.543 2851 1049.46 3207 1049.46 C 3563 1049.46 3920 512.543 4276 512.543" transform="matrix(1,0,0,1,-217.43975830078125,0)" style="fill:none;stroke:rgb(80, 107, 205);transform:matrix(1, 0, 0, 1, -217.44, 0);;animation:none"></path>
<path stroke-width="1" stroke-opacity="0" stroke="rgb(79, 108, 205)" fill="none" d="M 0 514.226 C 356 514.226 713 1047.77 1069 1047.77 C 1425 1047.77 1782 514.226 2138 514.226 C 2494 514.226 2851 1047.77 3207 1047.77 C 3563 1047.77 3920 514.226 4276 514.226" transform="matrix(1,0,0,1,-221.39320373535156,0)" style="fill:none;stroke:rgb(79, 108, 205);transform:matrix(1, 0, 0, 1, -221.393, 0);;animation:none"></path>
<path stroke-width="1" stroke-opacity="0" stroke="rgb(79, 109, 206)" fill="none" d="M 0 515.948 C 356 515.948 713 1046.05 1069 1046.05 C 1425 1046.05 1782 515.948 2138 515.948 C 2494 515.948 2851 1046.05 3207 1046.05 C 3563 1046.05 3920 515.948 4276 515.948" transform="matrix(1,0,0,1,-225.34664916992188,0)" style="fill:none;stroke:rgb(79, 109, 206);transform:matrix(1, 0, 0, 1, -225.347, 0);;animation:none"></path>
<path stroke-width="1" stroke-opacity="0" stroke="rgb(78, 110, 206)" fill="none" d="M 0 517.711 C 356 517.711 713 1044.29 1069 1044.29 C 1425 1044.29 1782 517.711 2138 517.711 C 2494 517.711 2851 1044.29 3207 1044.29 C 3563 1044.29 3920 517.711 4276 517.711" transform="matrix(1,0,0,1,-229.3000946044922,0)" style="fill:none;stroke:rgb(78, 110, 206);transform:matrix(1, 0, 0, 1, -229.3, 0);;animation:none"></path>
<path stroke-width="1" stroke-opacity="0" stroke="rgb(77, 111, 206)" fill="none" d="M 0 519.513 C 356 519.513 713 1042.49 1069 1042.49 C 1425 1042.49 1782 519.513 2138 519.513 C 2494 519.513 2851 1042.49 3207 1042.49 C 3563 1042.49 3920 519.513 4276 519.513" transform="matrix(1,0,0,1,-233.25355529785156,0)" style="fill:none;stroke:rgb(77, 111, 206);transform:matrix(1, 0, 0, 1, -233.254, 0);;animation:none"></path>
<path stroke-width="1" stroke-opacity="0" stroke="rgb(76, 112, 207)" fill="none" d="M 0 521.356 C 356 521.356 713 1040.64 1069 1040.64 C 1425 1040.64 1782 521.356 2138 521.356 C 2494 521.356 2851 1040.64 3207 1040.64 C 3563 1040.64 3920 521.356 4276 521.356" transform="matrix(1,0,0,1,-237.20700073242188,0)" style="fill:none;stroke:rgb(76, 112, 207);transform:matrix(1, 0, 0, 1, -237.207, 0);;animation:none"></path>
<path stroke-width="1" stroke-opacity="0" stroke="rgb(75, 113, 207)" fill="none" d="M 0 523.24 C 356 523.24 713 1038.76 1069 1038.76 C 1425 1038.76 1782 523.24 2138 523.24 C 2494 523.24 2851 1038.76 3207 1038.76 C 3563 1038.76 3920 523.24 4276 523.24" transform="matrix(1,0,0,1,-241.16046142578125,0)" style="fill:none;stroke:rgb(75, 113, 207);transform:matrix(1, 0, 0, 1, -241.16, 0);;animation:none"></path>
<path stroke-width="1" stroke-opacity="0" stroke="rgb(75, 114, 207)" fill="none" d="M 0 525.165 C 356 525.165 713 1036.83 1069 1036.83 C 1425 1036.83 1782 525.165 2138 525.165 C 2494 525.165 2851 1036.83 3207 1036.83 C 3563 1036.83 3920 525.165 4276 525.165" transform="matrix(1,0,0,1,-245.1138916015625,0)" style="fill:none;stroke:rgb(75, 114, 207);transform:matrix(1, 0, 0, 1, -245.114, 0);;animation:none"></path>
<path stroke-width="1" stroke-opacity="0" stroke="rgb(74, 115, 208)" fill="none" d="M 0 527.132 C 356 527.132 713 1034.87 1069 1034.87 C 1425 1034.87 1782 527.132 2138 527.132 C 2494 527.132 2851 1034.87 3207 1034.87 C 3563 1034.87 3920 527.132 4276 527.132" transform="matrix(1,0,0,1,-249.06735229492188,0)" style="fill:none;stroke:rgb(74, 115, 208);transform:matrix(1, 0, 0, 1, -249.067, 0);;animation:none"></path>
<path stroke-width="1" stroke-opacity="0" stroke="rgb(73, 116, 208)" fill="none" d="M 0 529.141 C 356 529.141 713 1032.86 1069 1032.86 C 1425 1032.86 1782 529.141 2138 529.141 C 2494 529.141 2851 1032.86 3207 1032.86 C 3563 1032.86 3920 529.141 4276 529.141" transform="matrix(1,0,0,1,-253.0207977294922,0)" style="fill:none;stroke:rgb(73, 116, 208);transform:matrix(1, 0, 0, 1, -253.021, 0);;animation:none"></path>
<path stroke-width="1" stroke-opacity="0" stroke="rgb(72, 118, 209)" fill="none" d="M 0 531.192 C 356 531.192 713 1030.81 1069 1030.81 C 1425 1030.81 1782 531.192 2138 531.192 C 2494 531.192 2851 1030.81 3207 1030.81 C 3563 1030.81 3920 531.192 4276 531.192" transform="matrix(1,0,0,1,-256.9742431640625,0)" style="fill:none;stroke:rgb(72, 118, 209);transform:matrix(1, 0, 0, 1, -256.974, 0);;animation:none"></path>
<path stroke-width="1" stroke-opacity="0" stroke="rgb(71, 119, 209)" fill="none" d="M 0 533.285 C 356 533.285 713 1028.71 1069 1028.71 C 1425 1028.71 1782 533.285 2138 533.285 C 2494 533.285 2851 1028.71 3207 1028.71 C 3563 1028.71 3920 533.285 4276 533.285" transform="matrix(1,0,0,1,-260.9277038574219,0)" style="fill:none;stroke:rgb(71, 119, 209);transform:matrix(1, 0, 0, 1, -260.928, 0);;animation:none"></path>
<path stroke-width="1" stroke-opacity="0" stroke="rgb(70, 120, 209)" fill="none" d="M 0 535.422 C 356 535.422 713 1026.58 1069 1026.58 C 1425 1026.58 1782 535.422 2138 535.422 C 2494 535.422 2851 1026.58 3207 1026.58 C 3563 1026.58 3920 535.422 4276 535.422" transform="matrix(1,0,0,1,-264.8811340332031,0)" style="fill:none;stroke:rgb(70, 120, 209);transform:matrix(1, 0, 0, 1, -264.881, 0);;animation:none"></path>
<path stroke-width="1" stroke-opacity="0" stroke="rgb(70, 121, 210)" fill="none" d="M 0 537.601 C 356 537.601 713 1024.4 1069 1024.4 C 1425 1024.4 1782 537.601 2138 537.601 C 2494 537.601 2851 1024.4 3207 1024.4 C 3563 1024.4 3920 537.601 4276 537.601" transform="matrix(1,0,0,1,-268.8345947265625,0)" style="fill:none;stroke:rgb(70, 121, 210);transform:matrix(1, 0, 0, 1, -268.835, 0);;animation:none"></path>
<path stroke-width="1" stroke-opacity="0" stroke="rgb(69, 122, 210)" fill="none" d="M 0 539.824 C 356 539.824 713 1022.18 1069 1022.18 C 1425 1022.18 1782 539.824 2138 539.824 C 2494 539.824 2851 1022.18 3207 1022.18 C 3563 1022.18 3920 539.824 4276 539.824" transform="matrix(1,0,0,1,-272.78802490234375,0)" style="fill:none;stroke:rgb(69, 122, 210);transform:matrix(1, 0, 0, 1, -272.788, 0);;animation:none"></path>
<path stroke-width="1" stroke-opacity="0" stroke="rgb(68, 123, 210)" fill="none" d="M 0 542.091 C 356 542.091 713 1019.91 1069 1019.91 C 1425 1019.91 1782 542.091 2138 542.091 C 2494 542.091 2851 1019.91 3207 1019.91 C 3563 1019.91 3920 542.091 4276 542.091" transform="matrix(1,0,0,1,-276.74151611328125,0)" style="fill:none;stroke:rgb(68, 123, 210);transform:matrix(1, 0, 0, 1, -276.742, 0);;animation:none"></path>
<path stroke-width="1" stroke-opacity="0" stroke="rgb(67, 124, 211)" fill="none" d="M 0 544.402 C 356 544.402 713 1017.6 1069 1017.6 C 1425 1017.6 1782 544.402 2138 544.402 C 2494 544.402 2851 1017.6 3207 1017.6 C 3563 1017.6 3920 544.402 4276 544.402" transform="matrix(1,0,0,1,-280.6949462890625,0)" style="fill:none;stroke:rgb(67, 124, 211);transform:matrix(1, 0, 0, 1, -280.695, 0);;animation:none"></path>
<path stroke-width="1" stroke-opacity="0" stroke="rgb(66, 126, 211)" fill="none" d="M 0 546.757 C 356 546.757 713 1015.24 1069 1015.24 C 1425 1015.24 1782 546.757 2138 546.757 C 2494 546.757 2851 1015.24 3207 1015.24 C 3563 1015.24 3920 546.757 4276 546.757" transform="matrix(1,0,0,1,-284.6484069824219,0)" style="fill:none;stroke:rgb(66, 126, 211);transform:matrix(1, 0, 0, 1, -284.648, 0);;animation:none"></path>
<path stroke-width="1" stroke-opacity="0" stroke="rgb(66, 127, 211)" fill="none" d="M 0 549.157 C 356 549.157 713 1012.84 1069 1012.84 C 1425 1012.84 1782 549.157 2138 549.157 C 2494 549.157 2851 1012.84 3207 1012.84 C 3563 1012.84 3920 549.157 4276 549.157" transform="matrix(1,0,0,1,-288.601806640625,0)" style="fill:none;stroke:rgb(66, 127, 211);transform:matrix(1, 0, 0, 1, -288.602, 0);;animation:none"></path>
<path stroke-width="1" stroke-opacity="0" stroke="rgb(65, 128, 212)" fill="none" d="M 0 551.602 C 356 551.602 713 1010.4 1069 1010.4 C 1425 1010.4 1782 551.602 2138 551.602 C 2494 551.602 2851 1010.4 3207 1010.4 C 3563 1010.4 3920 551.602 4276 551.602" transform="matrix(1,0,0,1,-292.5552978515625,0)" style="fill:none;stroke:rgb(65, 128, 212);transform:matrix(1, 0, 0, 1, -292.555, 0);;animation:none"></path>
<path stroke-width="1" stroke-opacity="0" stroke="rgb(64, 129, 212)" fill="none" d="M 0 554.091 C 356 554.091 713 1007.91 1069 1007.91 C 1425 1007.91 1782 554.091 2138 554.091 C 2494 554.091 2851 1007.91 3207 1007.91 C 3563 1007.91 3920 554.091 4276 554.091" transform="matrix(1,0,0,1,-296.5087585449219,0)" style="fill:none;stroke:rgb(64, 129, 212);transform:matrix(1, 0, 0, 1, -296.509, 0);;animation:none"></path>
<path stroke-width="1" stroke-opacity="0" stroke="rgb(63, 130, 213)" fill="none" d="M 0 556.627 C 356 556.627 713 1005.37 1069 1005.37 C 1425 1005.37 1782 556.627 2138 556.627 C 2494 556.627 2851 1005.37 3207 1005.37 C 3563 1005.37 3920 556.627 4276 556.627" transform="matrix(1,0,0,1,-300.4621887207031,0)" style="fill:none;stroke:rgb(63, 130, 213);transform:matrix(1, 0, 0, 1, -300.462, 0);;animation:none"></path>
<path stroke-width="1" stroke-opacity="0" stroke="rgb(62, 131, 213)" fill="none" d="M 0 559.207 C 356 559.207 713 1002.79 1069 1002.79 C 1425 1002.79 1782 559.207 2138 559.207 C 2494 559.207 2851 1002.79 3207 1002.79 C 3563 1002.79 3920 559.207 4276 559.207" transform="matrix(1,0,0,1,-304.4156494140625,0)" style="fill:none;stroke:rgb(62, 131, 213);transform:matrix(1, 0, 0, 1, -304.416, 0);;animation:none"></path>
<path stroke-width="1" stroke-opacity="0" stroke="rgb(62, 132, 213)" fill="none" d="M 0 561.834 C 356 561.834 713 1000.17 1069 1000.17 C 1425 1000.17 1782 561.834 2138 561.834 C 2494 561.834 2851 1000.17 3207 1000.17 C 3563 1000.17 3920 561.834 4276 561.834" transform="matrix(1,0,0,1,-308.3691101074219,0)" style="fill:none;stroke:rgb(62, 132, 213);transform:matrix(1, 0, 0, 1, -308.369, 0);;animation:none"></path>
<path stroke-width="1" stroke-opacity="0" stroke="rgb(61, 133, 214)" fill="none" d="M 0 564.507 C 356 564.507 713 997.493 1069 997.493 C 1425 997.493 1782 564.507 2138 564.507 C 2494 564.507 2851 997.493 3207 997.493 C 3563 997.493 3920 564.507 4276 564.507" transform="matrix(1,0,0,1,-312.3225402832031,0)" style="fill:none;stroke:rgb(61, 133, 214);transform:matrix(1, 0, 0, 1, -312.323, 0);;animation:none"></path>
<path stroke-width="1" stroke-opacity="0" stroke="rgb(60, 134, 214)" fill="none" d="M 0 567.225 C 356 567.225 713 994.775 1069 994.775 C 1425 994.775 1782 567.225 2138 567.225 C 2494 567.225 2851 994.775 3207 994.775 C 3563 994.775 3920 567.225 4276 567.225" transform="matrix(1,0,0,1,-316.2760009765625,0)" style="fill:none;stroke:rgb(60, 134, 214);transform:matrix(1, 0, 0, 1, -316.276, 0);;animation:none"></path>
<path stroke-width="1" stroke-opacity="0" stroke="rgb(59, 135, 214)" fill="none" d="M 0 569.99 C 356 569.99 713 992.01 1069 992.01 C 1425 992.01 1782 569.99 2138 569.99 C 2494 569.99 2851 992.01 3207 992.01 C 3563 992.01 3920 569.99 4276 569.99" transform="matrix(1,0,0,1,-320.22943115234375,0)" style="fill:none;stroke:rgb(59, 135, 214);transform:matrix(1, 0, 0, 1, -320.229, 0);;animation:none"></path>
<path stroke-width="1" stroke-opacity="0" stroke="rgb(59, 136, 215)" fill="none" d="M 0 572.802 C 356 572.802 713 989.198 1069 989.198 C 1425 989.198 1782 572.802 2138 572.802 C 2494 572.802 2851 989.198 3207 989.198 C 3563 989.198 3920 572.802 4276 572.802" transform="matrix(1,0,0,1,-324.18292236328125,0)" style="fill:none;stroke:rgb(59, 136, 215);transform:matrix(1, 0, 0, 1, -324.183, 0);;animation:none"></path>
<path stroke-width="1" stroke-opacity="0" stroke="rgb(58, 137, 215)" fill="none" d="M 0 575.66 C 356 575.66 713 986.34 1069 986.34 C 1425 986.34 1782 575.66 2138 575.66 C 2494 575.66 2851 986.34 3207 986.34 C 3563 986.34 3920 575.66 4276 575.66" transform="matrix(1,0,0,1,-328.1363525390625,0)" style="fill:none;stroke:rgb(58, 137, 215);transform:matrix(1, 0, 0, 1, -328.136, 0);;animation:none"></path>
<path stroke-width="1" stroke-opacity="0" stroke="rgb(57, 138, 215)" fill="none" d="M 0 578.565 C 356 578.565 713 983.435 1069 983.435 C 1425 983.435 1782 578.565 2138 578.565 C 2494 578.565 2851 983.435 3207 983.435 C 3563 983.435 3920 578.565 4276 578.565" transform="matrix(1,0,0,1,-332.08978271484375,0)" style="fill:none;stroke:rgb(57, 138, 215);transform:matrix(1, 0, 0, 1, -332.09, 0);;animation:none"></path>
<path stroke-width="1" stroke-opacity="0" stroke="rgb(57, 139, 215)" fill="none" d="M 0 581.516 C 356 581.516 713 980.484 1069 980.484 C 1425 980.484 1782 581.516 2138 581.516 C 2494 581.516 2851 980.484 3207 980.484 C 3563 980.484 3920 581.516 4276 581.516" transform="matrix(1,0,0,1,-336.0432434082031,0)" style="fill:none;stroke:rgb(57, 139, 215);transform:matrix(1, 0, 0, 1, -336.043, 0);;animation:none"></path>
<path stroke-width="1" stroke-opacity="0" stroke="rgb(56, 140, 216)" fill="none" d="M 0 584.514 C 356 584.514 713 977.486 1069 977.486 C 1425 977.486 1782 584.514 2138 584.514 C 2494 584.514 2851 977.486 3207 977.486 C 3563 977.486 3920 584.514 4276 584.514" transform="matrix(1,0,0,1,-339.9967041015625,0)" style="fill:none;stroke:rgb(56, 140, 216);transform:matrix(1, 0, 0, 1, -339.997, 0);;animation:none"></path>
<path stroke-width="1" stroke-opacity="0" stroke="rgb(55, 141, 216)" fill="none" d="M 0 587.56 C 356 587.56 713 974.44 1069 974.44 C 1425 974.44 1782 587.56 2138 587.56 C 2494 587.56 2851 974.44 3207 974.44 C 3563 974.44 3920 587.56 4276 587.56" transform="matrix(1,0,0,1,-343.9501037597656,0)" style="fill:none;stroke:rgb(55, 141, 216);transform:matrix(1, 0, 0, 1, -343.95, 0);;animation:none"></path>
<path stroke-width="1" stroke-opacity="0" stroke="rgb(55, 142, 216)" fill="none" d="M 0 590.652 C 356 590.652 713 971.348 1069 971.348 C 1425 971.348 1782 590.652 2138 590.652 C 2494 590.652 2851 971.348 3207 971.348 C 3563 971.348 3920 590.652 4276 590.652" transform="matrix(1,0,0,1,-347.9035949707031,0)" style="fill:none;stroke:rgb(55, 142, 216);transform:matrix(1, 0, 0, 1, -347.904, 0);;animation:none"></path>
<path stroke-width="1" stroke-opacity="0" stroke="rgb(54, 142, 217)" fill="none" d="M 0 593.791 C 356 593.791 713 968.209 1069 968.209 C 1425 968.209 1782 593.791 2138 593.791 C 2494 593.791 2851 968.209 3207 968.209 C 3563 968.209 3920 593.791 4276 593.791" transform="matrix(1,0,0,1,-351.8570251464844,0)" style="fill:none;stroke:rgb(54, 142, 217);transform:matrix(1, 0, 0, 1, -351.857, 0);;animation:none"></path>
<path stroke-width="1" stroke-opacity="0" stroke="rgb(53, 143, 217)" fill="none" d="M 0 596.976 C 356 596.976 713 965.024 1069 965.024 C 1425 965.024 1782 596.976 2138 596.976 C 2494 596.976 2851 965.024 3207 965.024 C 3563 965.024 3920 596.976 4276 596.976" transform="matrix(1,0,0,1,-355.81048583984375,0)" style="fill:none;stroke:rgb(53, 143, 217);transform:matrix(1, 0, 0, 1, -355.81, 0);;animation:none"></path>
<path stroke-width="1" stroke-opacity="0" stroke="rgb(53, 144, 217)" fill="none" d="M 0 600.209 C 356 600.209 713 961.791 1069 961.791 C 1425 961.791 1782 600.209 2138 600.209 C 2494 600.209 2851 961.791 3207 961.791 C 3563 961.791 3920 600.209 4276 600.209" transform="matrix(1,0,0,1,-359.7639465332031,0)" style="fill:none;stroke:rgb(53, 144, 217);transform:matrix(1, 0, 0, 1, -359.764, 0);;animation:none"></path>
<path stroke-width="1" stroke-opacity="0" stroke="rgb(52, 145, 217)" fill="none" d="M 0 603.488 C 356 603.488 713 958.512 1069 958.512 C 1425 958.512 1782 603.488 2138 603.488 C 2494 603.488 2851 958.512 3207 958.512 C 3563 958.512 3920 603.488 4276 603.488" transform="matrix(1,0,0,1,-363.7174072265625,0)" style="fill:none;stroke:rgb(52, 145, 217);transform:matrix(1, 0, 0, 1, -363.717, 0);;animation:none"></path>
<path stroke-width="1" stroke-opacity="0" stroke="rgb(52, 146, 218)" fill="none" d="M 0 606.813 C 356 606.813 713 955.187 1069 955.187 C 1425 955.187 1782 606.813 2138 606.813 C 2494 606.813 2851 955.187 3207 955.187 C 3563 955.187 3920 606.813 4276 606.813" transform="matrix(1,0,0,1,-367.67083740234375,0)" style="fill:none;stroke:rgb(52, 146, 218);transform:matrix(1, 0, 0, 1, -367.671, 0);;animation:none"></path>
<path stroke-width="1" stroke-opacity="0" stroke="rgb(51, 146, 218)" fill="none" d="M 0 610.185 C 356 610.185 713 951.815 1069 951.815 C 1425 951.815 1782 610.185 2138 610.185 C 2494 610.185 2851 951.815 3207 951.815 C 3563 951.815 3920 610.185 4276 610.185" transform="matrix(1,0,0,1,-371.6242980957031,0)" style="fill:none;stroke:rgb(51, 146, 218);transform:matrix(1, 0, 0, 1, -371.624, 0);;animation:none"></path>
<path stroke-width="1" stroke-opacity="0" stroke="rgb(51, 147, 218)" fill="none" d="M 0 613.603 C 356 613.603 713 948.397 1069 948.397 C 1425 948.397 1782 613.603 2138 613.603 C 2494 613.603 2851 948.397 3207 948.397 C 3563 948.397 3920 613.603 4276 613.603" transform="matrix(1,0,0,1,-375.5777587890625,0)" style="fill:none;stroke:rgb(51, 147, 218);transform:matrix(1, 0, 0, 1, -375.578, 0);;animation:none"></path>
<path stroke-width="1" stroke-opacity="0" stroke="rgb(50, 148, 218)" fill="none" d="M 0 617.066 C 356 617.066 713 944.934 1069 944.934 C 1425 944.934 1782 617.066 2138 617.066 C 2494 617.066 2851 944.934 3207 944.934 C 3563 944.934 3920 617.066 4276 617.066" transform="matrix(1,0,0,1,-379.5311584472656,0)" style="fill:none;stroke:rgb(50, 148, 218);transform:matrix(1, 0, 0, 1, -379.531, 0);;animation:none"></path>
<path stroke-width="1" stroke-opacity="0" stroke="rgb(50, 148, 219)" fill="none" d="M 0 620.576 C 356 620.576 713 941.424 1069 941.424 C 1425 941.424 1782 620.576 2138 620.576 C 2494 620.576 2851 941.424 3207 941.424 C 3563 941.424 3920 620.576 4276 620.576" transform="matrix(1,0,0,1,-383.4846496582031,0)" style="fill:none;stroke:rgb(50, 148, 219);transform:matrix(1, 0, 0, 1, -383.485, 0);;animation:none"></path>
<path stroke-width="1" stroke-opacity="0" stroke="rgb(49, 149, 219)" fill="none" d="M 0 624.13 C 356 624.13 713 937.87 1069 937.87 C 1425 937.87 1782 624.13 2138 624.13 C 2494 624.13 2851 937.87 3207 937.87 C 3563 937.87 3920 624.13 4276 624.13" transform="matrix(1,0,0,1,-387.4381103515625,0)" style="fill:none;stroke:rgb(49, 149, 219);transform:matrix(1, 0, 0, 1, -387.438, 0);;animation:none"></path>
<path stroke-width="1" stroke-opacity="0" stroke="rgb(49, 150, 219)" fill="none" d="M 0 627.73 C 356 627.73 713 934.27 1069 934.27 C 1425 934.27 1782 627.73 2138 627.73 C 2494 627.73 2851 934.27 3207 934.27 C 3563 934.27 3920 627.73 4276 627.73" transform="matrix(1,0,0,1,-391.39154052734375,0)" style="fill:none;stroke:rgb(49, 150, 219);transform:matrix(1, 0, 0, 1, -391.392, 0);;animation:none"></path>
<path stroke-width="1" stroke-opacity="0" stroke="rgb(48, 150, 219)" fill="none" d="M 0 631.374 C 356 631.374 713 930.626 1069 930.626 C 1425 930.626 1782 631.374 2138 631.374 C 2494 631.374 2851 930.626 3207 930.626 C 3563 930.626 3920 631.374 4276 631.374" transform="matrix(1,0,0,1,-395.3450012207031,0)" style="fill:none;stroke:rgb(48, 150, 219);transform:matrix(1, 0, 0, 1, -395.345, 0);;animation:none"></path>
<path stroke-width="1" stroke-opacity="0" stroke="rgb(48, 151, 219)" fill="none" d="M 0 635.061 C 356 635.061 713 926.938 1069 926.938 C 1425 926.938 1782 635.061 2138 635.061 C 2494 635.061 2851 926.938 3207 926.938 C 3563 926.938 3920 635.061 4276 635.061" transform="matrix(1,0,0,1,-399.2984313964844,0)" style="fill:none;stroke:rgb(48, 151, 219);transform:matrix(1, 0, 0, 1, -399.298, 0);;animation:none"></path>
<path stroke-width="1" stroke-opacity="0" stroke="rgb(48, 151, 219)" fill="none" d="M 0 638.793 C 356 638.793 713 923.207 1069 923.207 C 1425 923.207 1782 638.793 2138 638.793 C 2494 638.793 2851 923.207 3207 923.207 C 3563 923.207 3920 638.793 4276 638.793" transform="matrix(1,0,0,1,-403.2519226074219,0)" style="fill:none;stroke:rgb(48, 151, 219);transform:matrix(1, 0, 0, 1, -403.252, 0);;animation:none"></path>
<path stroke-width="1" stroke-opacity="0" stroke="rgb(47, 152, 220)" fill="none" d="M 0 642.568 C 356 642.568 713 919.432 1069 919.432 C 1425 919.432 1782 642.568 2138 642.568 C 2494 642.568 2851 919.432 3207 919.432 C 3563 919.432 3920 642.568 4276 642.568" transform="matrix(1,0,0,1,-407.2053527832031,0)" style="fill:none;stroke:rgb(47, 152, 220);transform:matrix(1, 0, 0, 1, -407.205, 0);;animation:none"></path>
<path stroke-width="1" stroke-opacity="0" stroke="rgb(47, 152, 220)" fill="none" d="M 0 646.384 C 356 646.384 713 915.616 1069 915.616 C 1425 915.616 1782 646.384 2138 646.384 C 2494 646.384 2851 915.616 3207 915.616 C 3563 915.616 3920 646.384 4276 646.384" transform="matrix(1,0,0,1,-411.1587829589844,0)" style="fill:none;stroke:rgb(47, 152, 220);transform:matrix(1, 0, 0, 1, -411.159, 0);;animation:none"></path>
<path stroke-width="1" stroke-opacity="0" stroke="rgb(47, 153, 220)" fill="none" d="M 0 650.243 C 356 650.243 713 911.757 1069 911.757 C 1425 911.757 1782 650.243 2138 650.243 C 2494 650.243 2851 911.757 3207 911.757 C 3563 911.757 3920 650.243 4276 650.243" transform="matrix(1,0,0,1,-415.11224365234375,0)" style="fill:none;stroke:rgb(47, 153, 220);transform:matrix(1, 0, 0, 1, -415.112, 0);;animation:none"></path>
<path stroke-width="1" stroke-opacity="0" stroke="rgb(46, 153, 220)" fill="none" d="M 0 654.143 C 356 654.143 713 907.857 1069 907.857 C 1425 907.857 1782 654.143 2138 654.143 C 2494 654.143 2851 907.857 3207 907.857 C 3563 907.857 3920 654.143 4276 654.143" transform="matrix(1,0,0,1,-419.0657043457031,0)" style="fill:none;stroke:rgb(46, 153, 220);transform:matrix(1, 0, 0, 1, -419.066, 0);;animation:none"></path>
<path stroke-width="1" stroke-opacity="0" stroke="rgb(46, 154, 220)" fill="none" d="M 0 658.084 C 356 658.084 713 903.916 1069 903.916 C 1425 903.916 1782 658.084 2138 658.084 C 2494 658.084 2851 903.916 3207 903.916 C 3563 903.916 3920 658.084 4276 658.084" transform="matrix(1,0,0,1,-423.0191650390625,0)" style="fill:none;stroke:rgb(46, 154, 220);transform:matrix(1, 0, 0, 1, -423.019, 0);;animation:none"></path>
<path stroke-width="1" stroke-opacity="0" stroke="rgb(46, 154, 220)" fill="none" d="M 0 662.064 C 356 662.064 713 899.936 1069 899.936 C 1425 899.936 1782 662.064 2138 662.064 C 2494 662.064 2851 899.936 3207 899.936 C 3563 899.936 3920 662.064 4276 662.064" transform="matrix(1,0,0,1,-426.97259521484375,0)" style="fill:none;stroke:rgb(46, 154, 220);transform:matrix(1, 0, 0, 1, -426.973, 0);;animation:none"></path>
<path stroke-width="1" stroke-opacity="0" stroke="rgb(45, 154, 221)" fill="none" d="M 0 666.083 C 356 666.083 713 895.917 1069 895.917 C 1425 895.917 1782 666.083 2138 666.083 C 2494 666.083 2851 895.917 3207 895.917 C 3563 895.917 3920 666.083 4276 666.083" transform="matrix(1,0,0,1,-430.926025390625,0)" style="fill:none;stroke:rgb(45, 154, 221);transform:matrix(1, 0, 0, 1, -430.926, 0);;animation:none"></path>
<path stroke-width="1" stroke-opacity="0" stroke="rgb(45, 155, 221)" fill="none" d="M 0 670.139 C 356 670.139 713 891.861 1069 891.861 C 1425 891.861 1782 670.139 2138 670.139 C 2494 670.139 2851 891.861 3207 891.861 C 3563 891.861 3920 670.139 4276 670.139" transform="matrix(1,0,0,1,-434.8795166015625,0)" style="fill:none;stroke:rgb(45, 155, 221);transform:matrix(1, 0, 0, 1, -434.88, 0);;animation:none"></path>
<path stroke-width="1" stroke-opacity="0" stroke="rgb(45, 155, 221)" fill="none" d="M 0 674.233 C 356 674.233 713 887.767 1069 887.767 C 1425 887.767 1782 674.233 2138 674.233 C 2494 674.233 2851 887.767 3207 887.767 C 3563 887.767 3920 674.233 4276 674.233" transform="matrix(1,0,0,1,-438.83294677734375,0)" style="fill:none;stroke:rgb(45, 155, 221);transform:matrix(1, 0, 0, 1, -438.833, 0);;animation:none"></path>
<path stroke-width="1" stroke-opacity="0" stroke="rgb(45, 155, 221)" fill="none" d="M 0 678.363 C 356 678.363 713 883.637 1069 883.637 C 1425 883.637 1782 678.363 2138 678.363 C 2494 678.363 2851 883.637 3207 883.637 C 3563 883.637 3920 678.363 4276 678.363" transform="matrix(1,0,0,1,-442.7864074707031,0)" style="fill:none;stroke:rgb(45, 155, 221);transform:matrix(1, 0, 0, 1, -442.786, 0);;animation:none"></path>
<path stroke-width="1" stroke-opacity="0" stroke="rgb(44, 156, 221)" fill="none" d="M 0 682.528 C 356 682.528 713 879.472 1069 879.472 C 1425 879.472 1782 682.528 2138 682.528 C 2494 682.528 2851 879.472 3207 879.472 C 3563 879.472 3920 682.528 4276 682.528" transform="matrix(1,0,0,1,-446.7398376464844,0)" style="fill:none;stroke:rgb(44, 156, 221);transform:matrix(1, 0, 0, 1, -446.74, 0);;animation:none"></path>
<path stroke-width="1" stroke-opacity="0" stroke="rgb(44, 156, 221)" fill="none" d="M 0 686.728 C 356 686.728 713 875.272 1069 875.272 C 1425 875.272 1782 686.728 2138 686.728 C 2494 686.728 2851 875.272 3207 875.272 C 3563 875.272 3920 686.728 4276 686.728" transform="matrix(1,0,0,1,-450.69329833984375,0)" style="fill:none;stroke:rgb(44, 156, 221);transform:matrix(1, 0, 0, 1, -450.693, 0);;animation:none"></path>
<path stroke-width="1" stroke-opacity="0" stroke="rgb(44, 156, 221)" fill="none" d="M 0 690.96 C 356 690.96 713 871.04 1069 871.04 C 1425 871.04 1782 690.96 2138 690.96 C 2494 690.96 2851 871.04 3207 871.04 C 3563 871.04 3920 690.96 4276 690.96" transform="matrix(1,0,0,1,-454.6467590332031,0)" style="fill:none;stroke:rgb(44, 156, 221);transform:matrix(1, 0, 0, 1, -454.647, 0);;animation:none"></path>
<path stroke-width="1" stroke-opacity="0" stroke="rgb(44, 157, 221)" fill="none" d="M 0 695.223 C 356 695.223 713 866.777 1069 866.777 C 1425 866.777 1782 695.223 2138 695.223 C 2494 695.223 2851 866.777 3207 866.777 C 3563 866.777 3920 695.223 4276 695.223" transform="matrix(1,0,0,1,-458.6001892089844,0)" style="fill:none;stroke:rgb(44, 157, 221);transform:matrix(1, 0, 0, 1, -458.6, 0);;animation:none"></path>
<path stroke-width="1" stroke-opacity="0" stroke="rgb(44, 157, 221)" fill="none" d="M 0 699.517 C 356 699.517 713 862.483 1069 862.483 C 1425 862.483 1782 699.517 2138 699.517 C 2494 699.517 2851 862.483 3207 862.483 C 3563 862.483 3920 699.517 4276 699.517" transform="matrix(1,0,0,1,-462.55364990234375,0)" style="fill:none;stroke:rgb(44, 157, 221);transform:matrix(1, 0, 0, 1, -462.554, 0);;animation:none"></path>
<path stroke-width="1" stroke-opacity="0" stroke="rgb(43, 157, 221)" fill="none" d="M 0 703.841 C 356 703.841 713 858.159 1069 858.159 C 1425 858.159 1782 703.841 2138 703.841 C 2494 703.841 2851 858.159 3207 858.159 C 3563 858.159 3920 703.841 4276 703.841" transform="matrix(1,0,0,1,-466.5071105957031,0)" style="fill:none;stroke:rgb(43, 157, 221);transform:matrix(1, 0, 0, 1, -466.507, 0);;animation:none"></path>
<path stroke-width="1" stroke-opacity="0" stroke="rgb(43, 157, 221)" fill="none" d="M 0 708.192 C 356 708.192 713 853.808 1069 853.808 C 1425 853.808 1782 708.192 2138 708.192 C 2494 708.192 2851 853.808 3207 853.808 C 3563 853.808 3920 708.192 4276 708.192" transform="matrix(1,0,0,1,-470.4605407714844,0)" style="fill:none;stroke:rgb(43, 157, 221);transform:matrix(1, 0, 0, 1, -470.461, 0);;animation:none"></path>
<path stroke-width="1" stroke-opacity="0" stroke="rgb(43, 158, 222)" fill="none" d="M 0 712.57 C 356 712.57 713 849.43 1069 849.43 C 1425 849.43 1782 712.57 2138 712.57 C 2494 712.57 2851 849.43 3207 849.43 C 3563 849.43 3920 712.57 4276 712.57" transform="matrix(1,0,0,1,-474.41400146484375,0)" style="fill:none;stroke:rgb(43, 158, 222);transform:matrix(1, 0, 0, 1, -474.414, 0);;animation:none"></path>
<path stroke-width="1" stroke-opacity="0" stroke="rgb(43, 158, 222)" fill="none" d="M 0 716.973 C 356 716.973 713 845.027 1069 845.027 C 1425 845.027 1782 716.973 2138 716.973 C 2494 716.973 2851 845.027 3207 845.027 C 3563 845.027 3920 716.973 4276 716.973" transform="matrix(1,0,0,1,-478.3674011230469,0)" style="fill:none;stroke:rgb(43, 158, 222);transform:matrix(1, 0, 0, 1, -478.367, 0);;animation:none"></path>
<path stroke-width="1" stroke-opacity="0" stroke="rgb(43, 158, 222)" fill="none" d="M 0 721.4 C 356 721.4 713 840.6 1069 840.6 C 1425 840.6 1782 721.4 2138 721.4 C 2494 721.4 2851 840.6 3207 840.6 C 3563 840.6 3920 721.4 4276 721.4" transform="matrix(1,0,0,1,-482.3209228515625,0)" style="fill:none;stroke:rgb(43, 158, 222);transform:matrix(1, 0, 0, 1, -482.321, 0);;animation:none"></path>
<path stroke-width="1" stroke-opacity="0" stroke="rgb(43, 158, 222)" fill="none" d="M 0 725.849 C 356 725.849 713 836.151 1069 836.151 C 1425 836.151 1782 725.849 2138 725.849 C 2494 725.849 2851 836.151 3207 836.151 C 3563 836.151 3920 725.849 4276 725.849" transform="matrix(1,0,0,1,-486.27435302734375,0)" style="fill:none;stroke:rgb(43, 158, 222);transform:matrix(1, 0, 0, 1, -486.274, 0);;animation:none"></path>
<path stroke-width="1" stroke-opacity="0" stroke="rgb(43, 158, 222)" fill="none" d="M 0 730.318 C 356 730.318 713 831.682 1069 831.682 C 1425 831.682 1782 730.318 2138 730.318 C 2494 730.318 2851 831.682 3207 831.682 C 3563 831.682 3920 730.318 4276 730.318" transform="matrix(1,0,0,1,-490.227783203125,0)" style="fill:none;stroke:rgb(43, 158, 222);transform:matrix(1, 0, 0, 1, -490.228, 0);;animation:none"></path>
<path stroke-width="1" stroke-opacity="0" stroke="rgb(42, 158, 222)" fill="none" d="M 0 734.807 C 356 734.807 713 827.193 1069 827.193 C 1425 827.193 1782 734.807 2138 734.807 C 2494 734.807 2851 827.193 3207 827.193 C 3563 827.193 3920 734.807 4276 734.807" transform="matrix(1,0,0,1,-494.1812438964844,0)" style="fill:none;stroke:rgb(42, 158, 222);transform:matrix(1, 0, 0, 1, -494.181, 0);;animation:none"></path>
<path stroke-width="1" stroke-opacity="0" stroke="rgb(42, 159, 222)" fill="none" d="M 0 739.313 C 356 739.313 713 822.687 1069 822.687 C 1425 822.687 1782 739.313 2138 739.313 C 2494 739.313 2851 822.687 3207 822.687 C 3563 822.687 3920 739.313 4276 739.313" transform="matrix(1,0,0,1,-498.13470458984375,0)" style="fill:none;stroke:rgb(42, 159, 222);transform:matrix(1, 0, 0, 1, -498.135, 0);;animation:none"></path>
<path stroke-width="1" stroke-opacity="0.008" stroke="rgb(42, 159, 222)" fill="none" d="M 0 743.835 C 356 743.835 713 818.165 1069 818.165 C 1425 818.165 1782 743.835 2138 743.835 C 2494 743.835 2851 818.165 3207 818.165 C 3563 818.165 3920 743.835 4276 743.835" transform="matrix(1,0,0,1,-502.0881652832031,0)" style="fill:none;stroke:rgb(42, 159, 222);transform:matrix(1, 0, 0, 1, -502.088, 0);;animation:none"></path>
<path stroke-width="1" stroke-opacity="0.016" stroke="rgb(42, 159, 222)" fill="none" d="M 0 748.372 C 356 748.372 713 813.628 1069 813.628 C 1425 813.628 1782 748.372 2138 748.372 C 2494 748.372 2851 813.628 3207 813.628 C 3563 813.628 3920 748.372 4276 748.372" transform="matrix(1,0,0,1,-506.0415954589844,0)" style="fill:none;stroke:rgb(42, 159, 222);transform:matrix(1, 0, 0, 1, -506.042, 0);;animation:none"></path>
<path stroke-width="1" stroke-opacity="0.024" stroke="rgb(42, 159, 222)" fill="none" d="M 0 752.92 C 356 752.92 713 809.08 1069 809.08 C 1425 809.08 1782 752.92 2138 752.92 C 2494 752.92 2851 809.08 3207 809.08 C 3563 809.08 3920 752.92 4276 752.92" transform="matrix(1,0,0,1,-509.9950256347656,0)" style="fill:none;stroke:rgb(42, 159, 222);transform:matrix(1, 0, 0, 1, -509.995, 0);;animation:none"></path>
<path stroke-width="1" stroke-opacity="0.032" stroke="rgb(42, 159, 222)" fill="none" d="M 0 757.48 C 356 757.48 713 804.52 1069 804.52 C 1425 804.52 1782 757.48 2138 757.48 C 2494 757.48 2851 804.52 3207 804.52 C 3563 804.52 3920 757.48 4276 757.48" transform="matrix(1,0,0,1,-513.948486328125,0)" style="fill:none;stroke:rgb(42, 159, 222);transform:matrix(1, 0, 0, 1, -513.948, 0);;animation:none"></path>
<path stroke-width="1" stroke-opacity="0.04" stroke="rgb(42, 159, 222)" fill="none" d="M 0 762.049 C 356 762.049 713 799.951 1069 799.951 C 1425 799.951 1782 762.049 2138 762.049 C 2494 762.049 2851 799.951 3207 799.951 C 3563 799.951 3920 762.049 4276 762.049" transform="matrix(1,0,0,1,-517.9019165039062,0)" style="fill:none;stroke:rgb(42, 159, 222);transform:matrix(1, 0, 0, 1, -517.902, 0);;animation:none"></path>
<path stroke-width="1" stroke-opacity="0.048" stroke="rgb(42, 159, 222)" fill="none" d="M 0 766.625 C 356 766.625 713 795.375 1069 795.375 C 1425 795.375 1782 766.625 2138 766.625 C 2494 766.625 2851 795.375 3207 795.375 C 3563 795.375 3920 766.625 4276 766.625" transform="matrix(1,0,0,1,-521.8554077148438,0)" style="fill:none;stroke:rgb(42, 159, 222);transform:matrix(1, 0, 0, 1, -521.855, 0);;animation:none"></path>
<path stroke-width="1" stroke-opacity="0.056" stroke="rgb(42, 159, 222)" fill="none" d="M 0 771.207 C 356 771.207 713 790.793 1069 790.793 C 1425 790.793 1782 771.207 2138 771.207 C 2494 771.207 2851 790.793 3207 790.793 C 3563 790.793 3920 771.207 4276 771.207" transform="matrix(1,0,0,1,-525.808837890625,0)" style="fill:none;stroke:rgb(42, 159, 222);transform:matrix(1, 0, 0, 1, -525.809, 0);;animation:none"></path>
<path stroke-width="1" stroke-opacity="0.064" stroke="rgb(42, 159, 222)" fill="none" d="M 0 775.792 C 356 775.792 713 786.208 1069 786.208 C 1425 786.208 1782 775.792 2138 775.792 C 2494 775.792 2851 786.208 3207 786.208 C 3563 786.208 3920 775.792 4276 775.792" transform="matrix(1,0,0,1,-529.7622680664062,0)" style="fill:none;stroke:rgb(42, 159, 222);transform:matrix(1, 0, 0, 1, -529.762, 0);;animation:none"></path>
<path stroke-width="1" stroke-opacity="0.072" stroke="rgb(42, 159, 222)" fill="none" d="M 0 780.38 C 356 780.38 713 781.62 1069 781.62 C 1425 781.62 1782 780.38 2138 780.38 C 2494 780.38 2851 781.62 3207 781.62 C 3563 781.62 3920 780.38 4276 780.38" transform="matrix(1,0,0,1,-533.7157592773438,0)" style="fill:none;stroke:rgb(42, 159, 222);transform:matrix(1, 0, 0, 1, -533.716, 0);;animation:none"></path>
<path stroke-width="1" stroke-opacity="0.08" stroke="rgb(42, 159, 222)" fill="none" d="M 0 784.968 C 356 784.968 713 777.032 1069 777.032 C 1425 777.032 1782 784.968 2138 784.968 C 2494 784.968 2851 777.032 3207 777.032 C 3563 777.032 3920 784.968 4276 784.968" transform="matrix(1,0,0,1,-537.669189453125,0)" style="fill:none;stroke:rgb(42, 159, 222);transform:matrix(1, 0, 0, 1, -537.669, 0);;animation:none"></path>
<path stroke-width="1" stroke-opacity="0.088" stroke="rgb(42, 159, 222)" fill="none" d="M 0 789.554 C 356 789.554 713 772.446 1069 772.446 C 1425 772.446 1782 789.554 2138 789.554 C 2494 789.554 2851 772.446 3207 772.446 C 3563 772.446 3920 789.554 4276 789.554" transform="matrix(1,0,0,1,-541.6226806640625,0)" style="fill:none;stroke:rgb(42, 159, 222);transform:matrix(1, 0, 0, 1, -541.623, 0);;animation:none"></path>
<path stroke-width="1" stroke-opacity="0.096" stroke="rgb(42, 159, 222)" fill="none" d="M 0 794.137 C 356 794.137 713 767.863 1069 767.863 C 1425 767.863 1782 794.137 2138 794.137 C 2494 794.137 2851 767.863 3207 767.863 C 3563 767.863 3920 794.137 4276 794.137" transform="matrix(1,0,0,1,-545.5760498046875,0)" style="fill:none;stroke:rgb(42, 159, 222);transform:matrix(1, 0, 0, 1, -545.576, 0);;animation:none"></path>
<path stroke-width="1" stroke-opacity="0.104" stroke="rgb(42, 159, 222)" fill="none" d="M 0 798.715 C 356 798.715 713 763.285 1069 763.285 C 1425 763.285 1782 798.715 2138 798.715 C 2494 798.715 2851 763.285 3207 763.285 C 3563 763.285 3920 798.715 4276 798.715" transform="matrix(1,0,0,1,-549.529541015625,0)" style="fill:none;stroke:rgb(42, 159, 222);transform:matrix(1, 0, 0, 1, -549.53, 0);;animation:none"></path>
<path stroke-width="1" stroke-opacity="0.112" stroke="rgb(42, 159, 222)" fill="none" d="M 0 803.286 C 356 803.286 713 758.714 1069 758.714 C 1425 758.714 1782 803.286 2138 803.286 C 2494 803.286 2851 758.714 3207 758.714 C 3563 758.714 3920 803.286 4276 803.286" transform="matrix(1,0,0,1,-553.4830322265625,0)" style="fill:none;stroke:rgb(42, 159, 222);transform:matrix(1, 0, 0, 1, -553.483, 0);;animation:none"></path>
<path stroke-width="1" stroke-opacity="0.12" stroke="rgb(42, 159, 222)" fill="none" d="M 0 807.848 C 356 807.848 713 754.152 1069 754.152 C 1425 754.152 1782 807.848 2138 807.848 C 2494 807.848 2851 754.152 3207 754.152 C 3563 754.152 3920 807.848 4276 807.848" transform="matrix(1,0,0,1,-557.4364624023438,0)" style="fill:none;stroke:rgb(42, 159, 222);transform:matrix(1, 0, 0, 1, -557.436, 0);;animation:none"></path>
<path stroke-width="1" stroke-opacity="0.128" stroke="rgb(42, 159, 222)" fill="none" d="M 0 812.4 C 356 812.4 713 749.6 1069 749.6 C 1425 749.6 1782 812.4 2138 812.4 C 2494 812.4 2851 749.6 3207 749.6 C 3563 749.6 3920 812.4 4276 812.4" transform="matrix(1,0,0,1,-561.389892578125,0)" style="fill:none;stroke:rgb(42, 159, 222);transform:matrix(1, 0, 0, 1, -561.39, 0);;animation:none"></path>
<path stroke-width="1" stroke-opacity="0.136" stroke="rgb(42, 159, 222)" fill="none" d="M 0 816.94 C 356 816.94 713 745.06 1069 745.06 C 1425 745.06 1782 816.94 2138 816.94 C 2494 816.94 2851 745.06 3207 745.06 C 3563 745.06 3920 816.94 4276 816.94" transform="matrix(1,0,0,1,-565.3433227539062,0)" style="fill:none;stroke:rgb(42, 159, 222);transform:matrix(1, 0, 0, 1, -565.343, 0);;animation:none"></path>
<path stroke-width="1" stroke-opacity="0.144" stroke="rgb(42, 159, 222)" fill="none" d="M 0 821.466 C 356 821.466 713 740.534 1069 740.534 C 1425 740.534 1782 821.466 2138 821.466 C 2494 821.466 2851 740.534 3207 740.534 C 3563 740.534 3920 821.466 4276 821.466" transform="matrix(1,0,0,1,-569.2968139648438,0)" style="fill:none;stroke:rgb(42, 159, 222);transform:matrix(1, 0, 0, 1, -569.297, 0);;animation:none"></path>
<path stroke-width="1" stroke-opacity="0.152" stroke="rgb(42, 160, 221)" fill="none" d="M 0 825.977 C 356 825.977 713 736.023 1069 736.023 C 1425 736.023 1782 825.977 2138 825.977 C 2494 825.977 2851 736.023 3207 736.023 C 3563 736.023 3920 825.977 4276 825.977" transform="matrix(1,0,0,1,-573.250244140625,0)" style="fill:none;stroke:rgb(42, 160, 221);transform:matrix(1, 0, 0, 1, -573.25, 0);;animation:none"></path>
<path stroke-width="1" stroke-opacity="0.16" stroke="rgb(42, 160, 221)" fill="none" d="M 0 830.47 C 356 830.47 713 731.53 1069 731.53 C 1425 731.53 1782 830.47 2138 830.47 C 2494 830.47 2851 731.53 3207 731.53 C 3563 731.53 3920 830.47 4276 830.47" transform="matrix(1,0,0,1,-577.20361328125,0)" style="fill:none;stroke:rgb(42, 160, 221);transform:matrix(1, 0, 0, 1, -577.204, 0);;animation:none"></path>
<path stroke-width="1" stroke-opacity="0.168" stroke="rgb(42, 160, 221)" fill="none" d="M 0 834.945 C 356 834.945 713 727.055 1069 727.055 C 1425 727.055 1782 834.945 2138 834.945 C 2494 834.945 2851 727.055 3207 727.055 C 3563 727.055 3920 834.945 4276 834.945" transform="matrix(1,0,0,1,-581.1571655273438,0)" style="fill:none;stroke:rgb(42, 160, 221);transform:matrix(1, 0, 0, 1, -581.157, 0);;animation:none"></path>
<path stroke-width="1" stroke-opacity="0.176" stroke="rgb(42, 160, 221)" fill="none" d="M 0 839.4 C 356 839.4 713 722.6 1069 722.6 C 1425 722.6 1782 839.4 2138 839.4 C 2494 839.4 2851 722.6 3207 722.6 C 3563 722.6 3920 839.4 4276 839.4" transform="matrix(1,0,0,1,-585.110595703125,0)" style="fill:none;stroke:rgb(42, 160, 221);transform:matrix(1, 0, 0, 1, -585.111, 0);;animation:none"></path>
<path stroke-width="1" stroke-opacity="0.184" stroke="rgb(42, 160, 221)" fill="none" d="M 0 843.833 C 356 843.833 713 718.167 1069 718.167 C 1425 718.167 1782 843.833 2138 843.833 C 2494 843.833 2851 718.167 3207 718.167 C 3563 718.167 3920 843.833 4276 843.833" transform="matrix(1,0,0,1,-589.0640258789062,0)" style="fill:none;stroke:rgb(42, 160, 221);transform:matrix(1, 0, 0, 1, -589.064, 0);;animation:none"></path>
<path stroke-width="1" stroke-opacity="0.192" stroke="rgb(42, 160, 221)" fill="none" d="M 0 848.242 C 356 848.242 713 713.758 1069 713.758 C 1425 713.758 1782 848.242 2138 848.242 C 2494 848.242 2851 713.758 3207 713.758 C 3563 713.758 3920 848.242 4276 848.242" transform="matrix(1,0,0,1,-593.0175170898438,0)" style="fill:none;stroke:rgb(42, 160, 221);transform:matrix(1, 0, 0, 1, -593.018, 0);;animation:none"></path>
<path stroke-width="1" stroke-opacity="0.2" stroke="rgb(42, 160, 221)" fill="none" d="M 0 852.627 C 356 852.627 713 709.373 1069 709.373 C 1425 709.373 1782 852.627 2138 852.627 C 2494 852.627 2851 709.373 3207 709.373 C 3563 709.373 3920 852.627 4276 852.627" transform="matrix(1,0,0,1,-596.970947265625,0)" style="fill:none;stroke:rgb(42, 160, 221);transform:matrix(1, 0, 0, 1, -596.971, 0);;animation:none"></path>
<path stroke-width="1" stroke-opacity="0.208" stroke="rgb(42, 161, 220)" fill="none" d="M 0 856.986 C 356 856.986 713 705.014 1069 705.014 C 1425 705.014 1782 856.986 2138 856.986 C 2494 856.986 2851 705.014 3207 705.014 C 3563 705.014 3920 856.986 4276 856.986" transform="matrix(1,0,0,1,-600.9243774414062,0)" style="fill:none;stroke:rgb(42, 161, 220);transform:matrix(1, 0, 0, 1, -600.924, 0);;animation:none"></path>
<path stroke-width="1" stroke-opacity="0.216" stroke="rgb(42, 161, 220)" fill="none" d="M 0 861.317 C 356 861.317 713 700.683 1069 700.683 C 1425 700.683 1782 861.317 2138 861.317 C 2494 861.317 2851 700.683 3207 700.683 C 3563 700.683 3920 861.317 4276 861.317" transform="matrix(1,0,0,1,-604.8778686523438,0)" style="fill:none;stroke:rgb(42, 161, 220);transform:matrix(1, 0, 0, 1, -604.878, 0);;animation:none"></path>
<path stroke-width="1" stroke-opacity="0.224" stroke="rgb(42, 161, 220)" fill="none" d="M 0 865.619 C 356 865.619 713 696.381 1069 696.381 C 1425 696.381 1782 865.619 2138 865.619 C 2494 865.619 2851 696.381 3207 696.381 C 3563 696.381 3920 865.619 4276 865.619" transform="matrix(1,0,0,1,-608.831298828125,0)" style="fill:none;stroke:rgb(42, 161, 220);transform:matrix(1, 0, 0, 1, -608.831, 0);;animation:none"></path>
<path stroke-width="1" stroke-opacity="0.232" stroke="rgb(42, 161, 220)" fill="none" d="M 0 869.891 C 356 869.891 713 692.109 1069 692.109 C 1425 692.109 1782 869.891 2138 869.891 C 2494 869.891 2851 692.109 3207 692.109 C 3563 692.109 3920 869.891 4276 869.891" transform="matrix(1,0,0,1,-612.7847290039062,0)" style="fill:none;stroke:rgb(42, 161, 220);transform:matrix(1, 0, 0, 1, -612.785, 0);;animation:none"></path>
<path stroke-width="1" stroke-opacity="0.24" stroke="rgb(42, 162, 219)" fill="none" d="M 0 874.132 C 356 874.132 713 687.868 1069 687.868 C 1425 687.868 1782 874.132 2138 874.132 C 2494 874.132 2851 687.868 3207 687.868 C 3563 687.868 3920 874.132 4276 874.132" transform="matrix(1,0,0,1,-616.7382202148438,0)" style="fill:none;stroke:rgb(42, 162, 219);transform:matrix(1, 0, 0, 1, -616.738, 0);;animation:none"></path>
<path stroke-width="1" stroke-opacity="0.248" stroke="rgb(42, 162, 219)" fill="none" d="M 0 878.34 C 356 878.34 713 683.66 1069 683.66 C 1425 683.66 1782 878.34 2138 878.34 C 2494 878.34 2851 683.66 3207 683.66 C 3563 683.66 3920 878.34 4276 878.34" transform="matrix(1,0,0,1,-620.691650390625,0)" style="fill:none;stroke:rgb(42, 162, 219);transform:matrix(1, 0, 0, 1, -620.692, 0);;animation:none"></path>
<path stroke-width="1" stroke-opacity="0.256" stroke="rgb(42, 162, 219)" fill="none" d="M 0 882.514 C 356 882.514 713 679.486 1069 679.486 C 1425 679.486 1782 882.514 2138 882.514 C 2494 882.514 2851 679.486 3207 679.486 C 3563 679.486 3920 882.514 4276 882.514" transform="matrix(1,0,0,1,-624.6450805664062,0)" style="fill:none;stroke:rgb(42, 162, 219);transform:matrix(1, 0, 0, 1, -624.645, 0);;animation:none"></path>
<path stroke-width="1" stroke-opacity="0.264" stroke="rgb(42, 162, 219)" fill="none" d="M 0 886.654 C 356 886.654 713 675.346 1069 675.346 C 1425 675.346 1782 886.654 2138 886.654 C 2494 886.654 2851 675.346 3207 675.346 C 3563 675.346 3920 886.654 4276 886.654" transform="matrix(1,0,0,1,-628.5985107421875,0)" style="fill:none;stroke:rgb(42, 162, 219);transform:matrix(1, 0, 0, 1, -628.599, 0);;animation:none"></path>
<path stroke-width="1" stroke-opacity="0.272" stroke="rgb(42, 163, 218)" fill="none" d="M 0 890.758 C 356 890.758 713 671.242 1069 671.242 C 1425 671.242 1782 890.758 2138 890.758 C 2494 890.758 2851 671.242 3207 671.242 C 3563 671.242 3920 890.758 4276 890.758" transform="matrix(1,0,0,1,-632.552001953125,0)" style="fill:none;stroke:rgb(42, 163, 218);transform:matrix(1, 0, 0, 1, -632.552, 0);;animation:none"></path>
<path stroke-width="1" stroke-opacity="0.28" stroke="rgb(41, 163, 218)" fill="none" d="M 0 894.825 C 356 894.825 713 667.175 1069 667.175 C 1425 667.175 1782 894.825 2138 894.825 C 2494 894.825 2851 667.175 3207 667.175 C 3563 667.175 3920 894.825 4276 894.825" transform="matrix(1,0,0,1,-636.5054931640625,0)" style="fill:none;stroke:rgb(41, 163, 218);transform:matrix(1, 0, 0, 1, -636.505, 0);;animation:none"></path>
<path stroke-width="1" stroke-opacity="0.288" stroke="rgb(41, 163, 218)" fill="none" d="M 0 898.854 C 356 898.854 713 663.146 1069 663.146 C 1425 663.146 1782 898.854 2138 898.854 C 2494 898.854 2851 663.146 3207 663.146 C 3563 663.146 3920 898.854 4276 898.854" transform="matrix(1,0,0,1,-640.4588623046875,0)" style="fill:none;stroke:rgb(41, 163, 218);transform:matrix(1, 0, 0, 1, -640.459, 0);;animation:none"></path>
<path stroke-width="1" stroke-opacity="0.296" stroke="rgb(41, 164, 217)" fill="none" d="M 0 902.845 C 356 902.845 713 659.155 1069 659.155 C 1425 659.155 1782 902.845 2138 902.845 C 2494 902.845 2851 659.155 3207 659.155 C 3563 659.155 3920 902.845 4276 902.845" transform="matrix(1,0,0,1,-644.412353515625,0)" style="fill:none;stroke:rgb(41, 164, 217);transform:matrix(1, 0, 0, 1, -644.412, 0);;animation:none"></path>
<path stroke-width="1" stroke-opacity="0.304" stroke="rgb(41, 164, 217)" fill="none" d="M 0 906.796 C 356 906.796 713 655.204 1069 655.204 C 1425 655.204 1782 906.796 2138 906.796 C 2494 906.796 2851 655.204 3207 655.204 C 3563 655.204 3920 906.796 4276 906.796" transform="matrix(1,0,0,1,-648.3658447265625,0)" style="fill:none;stroke:rgb(41, 164, 217);transform:matrix(1, 0, 0, 1, -648.366, 0);;animation:none"></path>
<path stroke-width="1" stroke-opacity="0.312" stroke="rgb(41, 165, 216)" fill="none" d="M 0 910.707 C 356 910.707 713 651.293 1069 651.293 C 1425 651.293 1782 910.707 2138 910.707 C 2494 910.707 2851 651.293 3207 651.293 C 3563 651.293 3920 910.707 4276 910.707" transform="matrix(1,0,0,1,-652.3192138671875,0)" style="fill:none;stroke:rgb(41, 165, 216);transform:matrix(1, 0, 0, 1, -652.319, 0);;animation:none"></path>
<path stroke-width="1" stroke-opacity="0.32" stroke="rgb(41, 165, 216)" fill="none" d="M 0 914.577 C 356 914.577 713 647.423 1069 647.423 C 1425 647.423 1782 914.577 2138 914.577 C 2494 914.577 2851 647.423 3207 647.423 C 3563 647.423 3920 914.577 4276 914.577" transform="matrix(1,0,0,1,-656.272705078125,0)" style="fill:none;stroke:rgb(41, 165, 216);transform:matrix(1, 0, 0, 1, -656.273, 0);;animation:none"></path>
<path stroke-width="1" stroke-opacity="0.328" stroke="rgb(41, 165, 216)" fill="none" d="M 0 918.405 C 356 918.405 713 643.595 1069 643.595 C 1425 643.595 1782 918.405 2138 918.405 C 2494 918.405 2851 643.595 3207 643.595 C 3563 643.595 3920 918.405 4276 918.405" transform="matrix(1,0,0,1,-660.2261352539062,0)" style="fill:none;stroke:rgb(41, 165, 216);transform:matrix(1, 0, 0, 1, -660.226, 0);;animation:none"></path>
<path stroke-width="1" stroke-opacity="0.336" stroke="rgb(41, 166, 215)" fill="none" d="M 0 922.191 C 356 922.191 713 639.809 1069 639.809 C 1425 639.809 1782 922.191 2138 922.191 C 2494 922.191 2851 639.809 3207 639.809 C 3563 639.809 3920 922.191 4276 922.191" transform="matrix(1,0,0,1,-664.1795654296875,0)" style="fill:none;stroke:rgb(41, 166, 215);transform:matrix(1, 0, 0, 1, -664.18, 0);;animation:none"></path>
<path stroke-width="1" stroke-opacity="0.344" stroke="rgb(41, 166, 215)" fill="none" d="M 0 925.934 C 356 925.934 713 636.066 1069 636.066 C 1425 636.066 1782 925.934 2138 925.934 C 2494 925.934 2851 636.066 3207 636.066 C 3563 636.066 3920 925.934 4276 925.934" transform="matrix(1,0,0,1,-668.133056640625,0)" style="fill:none;stroke:rgb(41, 166, 215);transform:matrix(1, 0, 0, 1, -668.133, 0);;animation:none"></path>
<path stroke-width="1" stroke-opacity="0.352" stroke="rgb(41, 167, 214)" fill="none" d="M 0 929.634 C 356 929.634 713 632.366 1069 632.366 C 1425 632.366 1782 929.634 2138 929.634 C 2494 929.634 2851 632.366 3207 632.366 C 3563 632.366 3920 929.634 4276 929.634" transform="matrix(1,0,0,1,-672.0864868164062,0)" style="fill:none;stroke:rgb(41, 167, 214);transform:matrix(1, 0, 0, 1, -672.086, 0);;animation:none"></path>
<path stroke-width="1" stroke-opacity="0.36" stroke="rgb(41, 167, 214)" fill="none" d="M 0 933.29 C 356 933.29 713 628.71 1069 628.71 C 1425 628.71 1782 933.29 2138 933.29 C 2494 933.29 2851 628.71 3207 628.71 C 3563 628.71 3920 933.29 4276 933.29" transform="matrix(1,0,0,1,-676.0399169921875,0)" style="fill:none;stroke:rgb(41, 167, 214);transform:matrix(1, 0, 0, 1, -676.04, 0);;animation:none"></path>
<path stroke-width="1" stroke-opacity="0.368" stroke="rgb(41, 168, 213)" fill="none" d="M 0 936.901 C 356 936.901 713 625.099 1069 625.099 C 1425 625.099 1782 936.901 2138 936.901 C 2494 936.901 2851 625.099 3207 625.099 C 3563 625.099 3920 936.901 4276 936.901" transform="matrix(1,0,0,1,-679.993408203125,0)" style="fill:none;stroke:rgb(41, 168, 213);transform:matrix(1, 0, 0, 1, -679.993, 0);;animation:none"></path>
<path stroke-width="1" stroke-opacity="0.376" stroke="rgb(41, 168, 213)" fill="none" d="M 0 940.468 C 356 940.468 713 621.532 1069 621.532 C 1425 621.532 1782 940.468 2138 940.468 C 2494 940.468 2851 621.532 3207 621.532 C 3563 621.532 3920 940.468 4276 940.468" transform="matrix(1,0,0,1,-683.9468383789062,0)" style="fill:none;stroke:rgb(41, 168, 213);transform:matrix(1, 0, 0, 1, -683.947, 0);;animation:none"></path>
<path stroke-width="1" stroke-opacity="0.384" stroke="rgb(41, 169, 212)" fill="none" d="M 0 943.99 C 356 943.99 713 618.01 1069 618.01 C 1425 618.01 1782 943.99 2138 943.99 C 2494 943.99 2851 618.01 3207 618.01 C 3563 618.01 3920 943.99 4276 943.99" transform="matrix(1,0,0,1,-687.9002685546875,0)" style="fill:none;stroke:rgb(41, 169, 212);transform:matrix(1, 0, 0, 1, -687.9, 0);;animation:none"></path>
<path stroke-width="1" stroke-opacity="0.392" stroke="rgb(41, 170, 211)" fill="none" d="M 0 947.466 C 356 947.466 713 614.534 1069 614.534 C 1425 614.534 1782 947.466 2138 947.466 C 2494 947.466 2851 614.534 3207 614.534 C 3563 614.534 3920 947.466 4276 947.466" transform="matrix(1,0,0,1,-691.8536987304688,0)" style="fill:none;stroke:rgb(41, 170, 211);transform:matrix(1, 0, 0, 1, -691.854, 0);;animation:none"></path>
<path stroke-width="1" stroke-opacity="0.4" stroke="rgb(41, 170, 211)" fill="none" d="M 0 950.896 C 356 950.896 713 611.104 1069 611.104 C 1425 611.104 1782 950.896 2138 950.896 C 2494 950.896 2851 611.104 3207 611.104 C 3563 611.104 3920 950.896 4276 950.896" transform="matrix(1,0,0,1,-695.8071899414062,0)" style="fill:none;stroke:rgb(41, 170, 211);transform:matrix(1, 0, 0, 1, -695.807, 0);;animation:none"></path>
<path stroke-width="1" stroke-opacity="0.408" stroke="rgb(40, 171, 210)" fill="none" d="M 0 954.28 C 356 954.28 713 607.72 1069 607.72 C 1425 607.72 1782 954.28 2138 954.28 C 2494 954.28 2851 607.72 3207 607.72 C 3563 607.72 3920 954.28 4276 954.28" transform="matrix(1,0,0,1,-699.7606201171875,0)" style="fill:none;stroke:rgb(40, 171, 210);transform:matrix(1, 0, 0, 1, -699.761, 0);;animation:none"></path>
<path stroke-width="1" stroke-opacity="0.416" stroke="rgb(40, 172, 209)" fill="none" d="M 0 957.618 C 356 957.618 713 604.382 1069 604.382 C 1425 604.382 1782 957.618 2138 957.618 C 2494 957.618 2851 604.382 3207 604.382 C 3563 604.382 3920 957.618 4276 957.618" transform="matrix(1,0,0,1,-703.7140502929688,0)" style="fill:none;stroke:rgb(40, 172, 209);transform:matrix(1, 0, 0, 1, -703.714, 0);;animation:none"></path>
<path stroke-width="1" stroke-opacity="0.424" stroke="rgb(40, 172, 209)" fill="none" d="M 0 960.91 C 356 960.91 713 601.09 1069 601.09 C 1425 601.09 1782 960.91 2138 960.91 C 2494 960.91 2851 601.09 3207 601.09 C 3563 601.09 3920 960.91 4276 960.91" transform="matrix(1,0,0,1,-707.6675415039062,0)" style="fill:none;stroke:rgb(40, 172, 209);transform:matrix(1, 0, 0, 1, -707.668, 0);;animation:none"></path>
<path stroke-width="1" stroke-opacity="0.432" stroke="rgb(40, 173, 208)" fill="none" d="M 0 964.155 C 356 964.155 713 597.845 1069 597.845 C 1425 597.845 1782 964.155 2138 964.155 C 2494 964.155 2851 597.845 3207 597.845 C 3563 597.845 3920 964.155 4276 964.155" transform="matrix(1,0,0,1,-711.6209716796875,0)" style="fill:none;stroke:rgb(40, 173, 208);transform:matrix(1, 0, 0, 1, -711.621, 0);;animation:none"></path>
<path stroke-width="1" stroke-opacity="0.44" stroke="rgb(40, 174, 207)" fill="none" d="M 0 967.353 C 356 967.353 713 594.647 1069 594.647 C 1425 594.647 1782 967.353 2138 967.353 C 2494 967.353 2851 594.647 3207 594.647 C 3563 594.647 3920 967.353 4276 967.353" transform="matrix(1,0,0,1,-715.574462890625,0)" style="fill:none;stroke:rgb(40, 174, 207);transform:matrix(1, 0, 0, 1, -715.574, 0);;animation:none"></path>
<path stroke-width="1" stroke-opacity="0.448" stroke="rgb(40, 174, 207)" fill="none" d="M 0 970.505 C 356 970.505 713 591.495 1069 591.495 C 1425 591.495 1782 970.505 2138 970.505 C 2494 970.505 2851 591.495 3207 591.495 C 3563 591.495 3920 970.505 4276 970.505" transform="matrix(1,0,0,1,-719.5278930664062,0)" style="fill:none;stroke:rgb(40, 174, 207);transform:matrix(1, 0, 0, 1, -719.528, 0);;animation:none"></path>
<path stroke-width="1" stroke-opacity="0.456" stroke="rgb(40, 175, 206)" fill="none" d="M 0 973.609 C 356 973.609 713 588.391 1069 588.391 C 1425 588.391 1782 973.609 2138 973.609 C 2494 973.609 2851 588.391 3207 588.391 C 3563 588.391 3920 973.609 4276 973.609" transform="matrix(1,0,0,1,-723.4813232421875,0)" style="fill:none;stroke:rgb(40, 175, 206);transform:matrix(1, 0, 0, 1, -723.481, 0);;animation:none"></path>
<path stroke-width="1" stroke-opacity="0.464" stroke="rgb(40, 176, 205)" fill="none" d="M 0 976.667 C 356 976.667 713 585.333 1069 585.333 C 1425 585.333 1782 976.667 2138 976.667 C 2494 976.667 2851 585.333 3207 585.333 C 3563 585.333 3920 976.667 4276 976.667" transform="matrix(1,0,0,1,-727.434814453125,0)" style="fill:none;stroke:rgb(40, 176, 205);transform:matrix(1, 0, 0, 1, -727.435, 0);;animation:none"></path>
<path stroke-width="1" stroke-opacity="0.472" stroke="rgb(40, 177, 204)" fill="none" d="M 0 979.678 C 356 979.678 713 582.322 1069 582.322 C 1425 582.322 1782 979.678 2138 979.678 C 2494 979.678 2851 582.322 3207 582.322 C 3563 582.322 3920 979.678 4276 979.678" transform="matrix(1,0,0,1,-731.3882446289062,0)" style="fill:none;stroke:rgb(40, 177, 204);transform:matrix(1, 0, 0, 1, -731.388, 0);;animation:none"></path>
<path stroke-width="1" stroke-opacity="0.48" stroke="rgb(40, 178, 203)" fill="none" d="M 0 982.642 C 356 982.642 713 579.358 1069 579.358 C 1425 579.358 1782 982.642 2138 982.642 C 2494 982.642 2851 579.358 3207 579.358 C 3563 579.358 3920 982.642 4276 982.642" transform="matrix(1,0,0,1,-735.3416748046875,0)" style="fill:none;stroke:rgb(40, 178, 203);transform:matrix(1, 0, 0, 1, -735.342, 0);;animation:none"></path>
<path stroke-width="1" stroke-opacity="0.488" stroke="rgb(39, 178, 203)" fill="none" d="M 0 985.56 C 356 985.56 713 576.44 1069 576.44 C 1425 576.44 1782 985.56 2138 985.56 C 2494 985.56 2851 576.44 3207 576.44 C 3563 576.44 3920 985.56 4276 985.56" transform="matrix(1,0,0,1,-739.295166015625,0)" style="fill:none;stroke:rgb(39, 178, 203);transform:matrix(1, 0, 0, 1, -739.295, 0);;animation:none"></path>
<path stroke-width="1" stroke-opacity="0.496" stroke="rgb(39, 179, 202)" fill="none" d="M 0 988.43 C 356 988.43 713 573.57 1069 573.57 C 1425 573.57 1782 988.43 2138 988.43 C 2494 988.43 2851 573.57 3207 573.57 C 3563 573.57 3920 988.43 4276 988.43" transform="matrix(1,0,0,1,-743.2485961914062,0)" style="fill:none;stroke:rgb(39, 179, 202);transform:matrix(1, 0, 0, 1, -743.249, 0);;animation:none"></path>
<path stroke-width="1" stroke-opacity="0.504" stroke="rgb(39, 180, 201)" fill="none" d="M 0 991.254 C 356 991.254 713 570.746 1069 570.746 C 1425 570.746 1782 991.254 2138 991.254 C 2494 991.254 2851 570.746 3207 570.746 C 3563 570.746 3920 991.254 4276 991.254" transform="matrix(1,0,0,1,-747.2020263671875,0)" style="fill:none;stroke:rgb(39, 180, 201);transform:matrix(1, 0, 0, 1, -747.202, 0);;animation:none"></path>
<path stroke-width="1" stroke-opacity="0.512" stroke="rgb(39, 181, 200)" fill="none" d="M 0 994.032 C 356 994.032 713 567.968 1069 567.968 C 1425 567.968 1782 994.032 2138 994.032 C 2494 994.032 2851 567.968 3207 567.968 C 3563 567.968 3920 994.032 4276 994.032" transform="matrix(1,0,0,1,-751.155517578125,0)" style="fill:none;stroke:rgb(39, 181, 200);transform:matrix(1, 0, 0, 1, -751.156, 0);;animation:none"></path>
<path stroke-width="1" stroke-opacity="0.52" stroke="rgb(39, 182, 199)" fill="none" d="M 0 996.763 C 356 996.763 713 565.237 1069 565.237 C 1425 565.237 1782 996.763 2138 996.763 C 2494 996.763 2851 565.237 3207 565.237 C 3563 565.237 3920 996.763 4276 996.763" transform="matrix(1,0,0,1,-755.1090087890625,0)" style="fill:none;stroke:rgb(39, 182, 199);transform:matrix(1, 0, 0, 1, -755.109, 0);;animation:none"></path>
<path stroke-width="1" stroke-opacity="0.528" stroke="rgb(39, 183, 198)" fill="none" d="M 0 999.448 C 356 999.448 713 562.552 1069 562.552 C 1425 562.552 1782 999.448 2138 999.448 C 2494 999.448 2851 562.552 3207 562.552 C 3563 562.552 3920 999.448 4276 999.448" transform="matrix(1,0,0,1,-759.0623779296875,0)" style="fill:none;stroke:rgb(39, 183, 198);transform:matrix(1, 0, 0, 1, -759.062, 0);;animation:none"></path>
<path stroke-width="1" stroke-opacity="0.536" stroke="rgb(39, 184, 197)" fill="none" d="M 0 1002.09 C 356 1002.09 713 559.913 1069 559.913 C 1425 559.913 1782 1002.09 2138 1002.09 C 2494 1002.09 2851 559.913 3207 559.913 C 3563 559.913 3920 1002.09 4276 1002.09" transform="matrix(1,0,0,1,-763.015869140625,0)" style="fill:none;stroke:rgb(39, 184, 197);transform:matrix(1, 0, 0, 1, -763.016, 0);;animation:none"></path>
<path stroke-width="1" stroke-opacity="0.544" stroke="rgb(39, 185, 196)" fill="none" d="M 0 1004.68 C 356 1004.68 713 557.32 1069 557.32 C 1425 557.32 1782 1004.68 2138 1004.68 C 2494 1004.68 2851 557.32 3207 557.32 C 3563 557.32 3920 1004.68 4276 1004.68" transform="matrix(1,0,0,1,-766.9692993164062,0)" style="fill:none;stroke:rgb(39, 185, 196);transform:matrix(1, 0, 0, 1, -766.969, 0);;animation:none"></path>
<path stroke-width="1" stroke-opacity="0.552" stroke="rgb(39, 186, 195)" fill="none" d="M 0 1007.23 C 356 1007.23 713 554.772 1069 554.772 C 1425 554.772 1782 1007.23 2138 1007.23 C 2494 1007.23 2851 554.772 3207 554.772 C 3563 554.772 3920 1007.23 4276 1007.23" transform="matrix(1,0,0,1,-770.9227294921875,0)" style="fill:none;stroke:rgb(39, 186, 195);transform:matrix(1, 0, 0, 1, -770.923, 0);;animation:none"></path>
<path stroke-width="1" stroke-opacity="0.56" stroke="rgb(38, 187, 194)" fill="none" d="M 0 1009.73 C 356 1009.73 713 552.27 1069 552.27 C 1425 552.27 1782 1009.73 2138 1009.73 C 2494 1009.73 2851 552.27 3207 552.27 C 3563 552.27 3920 1009.73 4276 1009.73" transform="matrix(1,0,0,1,-774.876220703125,0)" style="fill:none;stroke:rgb(38, 187, 194);transform:matrix(1, 0, 0, 1, -774.876, 0);;animation:none"></path>
<path stroke-width="1" stroke-opacity="0.568" stroke="rgb(38, 188, 193)" fill="none" d="M 0 1012.19 C 356 1012.19 713 549.813 1069 549.813 C 1425 549.813 1782 1012.19 2138 1012.19 C 2494 1012.19 2851 549.813 3207 549.813 C 3563 549.813 3920 1012.19 4276 1012.19" transform="matrix(1,0,0,1,-778.8296508789062,0)" style="fill:none;stroke:rgb(38, 188, 193);transform:matrix(1, 0, 0, 1, -778.83, 0);;animation:none"></path>
<path stroke-width="1" stroke-opacity="0.576" stroke="rgb(38, 189, 192)" fill="none" d="M 0 1014.6 C 356 1014.6 713 547.401 1069 547.401 C 1425 547.401 1782 1014.6 2138 1014.6 C 2494 1014.6 2851 547.401 3207 547.401 C 3563 547.401 3920 1014.6 4276 1014.6" transform="matrix(1,0,0,1,-782.7830810546875,0)" style="fill:none;stroke:rgb(38, 189, 192);transform:matrix(1, 0, 0, 1, -782.783, 0);;animation:none"></path>
<path stroke-width="1" stroke-opacity="0.584" stroke="rgb(38, 190, 191)" fill="none" d="M 0 1016.97 C 356 1016.97 713 545.034 1069 545.034 C 1425 545.034 1782 1016.97 2138 1016.97 C 2494 1016.97 2851 545.034 3207 545.034 C 3563 545.034 3920 1016.97 4276 1016.97" transform="matrix(1,0,0,1,-786.7365112304688,0)" style="fill:none;stroke:rgb(38, 190, 191);transform:matrix(1, 0, 0, 1, -786.737, 0);;animation:none"></path>
<g></g></g></svg>